<?xml version="1.0" encoding="UTF-8"?>
<svg id="Layer_1" xmlns="http://www.w3.org/2000/svg" version="1.1" viewBox="0 0 336.6 336.6">
  <!-- Generator: Adobe Illustrator 30.3.0, SVG Export Plug-In . SVG Version: 2.1.3 Build 157)  -->
  <defs>
    <style>
      .st0 {
        fill: #fff;
      }
    </style>
  </defs>
  <path class="st0" d="M156.8,329.6h-3.9c3.8-3.2,4.1-4.4,4.1-6,0-2.8-1.5-3.7-4.3-3.7s-2.2,0-2.9.3c-.5.1-.6.3-.6.8,0,.8.3,1.8.8,1.7.4,0,1-.2,2-.2,1.4,0,2,.4,2,1.2,0,1.4-.8,2-4.8,5.8-.2.3-.4,1.6-.4,2s0,.7.4.7h7.6c.4,0,.4-1.5.4-1.9s-.1-.7-.4-.7Z"/>
  <path class="st0" d="M163.6,319.9h-1c-2.9,0-4.4,1.5-4.4,3.9v4.6c0,2.4,1.4,3.9,4.4,3.9h1c2.9,0,4.4-1.5,4.4-3.9v-4.6c0-2.4-1.4-3.9-4.4-3.9ZM165,328.5c0,.7-.3,1.3-1.4,1.3h-1c-1,0-1.4-.6-1.4-1.3v-4.7c0-.7.3-1.3,1.4-1.3h1c1,0,1.4.6,1.4,1.3v4.7Z"/>
  <path class="st0" d="M177.1,329.6h-3.9c3.8-3.2,4.1-4.4,4.1-6,0-2.8-1.5-3.7-4.3-3.7s-2.2,0-2.9.3c-.5.1-.6.3-.6.8,0,.8.3,1.8.8,1.7.4,0,1-.2,2-.2,1.4,0,2,.4,2,1.2,0,1.4-.8,2-4.7,5.8-.2.3-.4,1.6-.4,2s0,.7.4.7h7.6c.4,0,.4-1.5.4-1.9s-.1-.7-.4-.7Z"/>
  <path class="st0" d="M182.9,324.4h-1.1l.2-2h4c.4,0,.5-1.5.5-1.8,0-.5-.3-.7-.5-.7h-5.3c-1,0-1.3,0-1.4.6l-.5,5.7c0,.4.1.5.7.5h2.2c1.9,0,2.2.5,2.2,1.4,0,1.3-.7,1.7-1.9,1.7s-2.8-.3-3.1-.3c-.6,0-.7,1.3-.7,1.8s0,.6.3.6c1.3.3,2.6.3,3.4.3,2.7,0,4.8-.9,4.8-3.7v-.5c0-2.7-1.3-3.7-4-3.7Z"/>
  <path class="st0" d="M109.1,167.8c0,.8.3,1,1,1,1.6,0,3.3,0,4.9,0,.3,0,.8.2.9.5,1.2,2.9,2.7,5.6,4.6,8.1,2,2.7,4.4,4.7,7.4,6.2,2.4,1.2,4.9,2.2,7.4,3.2,1.6.6,3.4,1,5.4,1.6-.5-1.4-.9-2.4-1.3-3.4-2.7-6.5-5-13.1-5.5-20.1-.3-3.9-.7-7.8-.9-11.7-.1-2.3.1-4.7.2-7,.2-8.2.3-16.4.5-24.5,0-.5.2-1,.4-1.6.3.4.8.8,1,1.2,2.2,4.9,4.3,9.8,6.5,14.8,1.2,2.7,2.4,5.4,3.6,8.1,2.3,5.3,4.6,10.5,6.9,15.8,2,4.6,4.1,9.2,6.2,13.9.6,1.3.9,1.5,2.3,1.2.3,0,.6-.1.8-.2,2.9-.7,5.5-1.8,7.8-3.9,3.7-3.4,4.7-7.8,5.2-12.5,0-.5,0-1.1-.3-1.5-1.6-2.3-3.3-4.5-5-6.8-3.4-4.8-6.9-9.6-10.3-14.5-3.5-4.9-6.9-9.7-10.4-14.6-1.6-2.2-3.2-4.4-4.8-6.6-1.1-1.5-2.1-3-3.2-4.5-.2-.2-.1-.6-.2-.9.3,0,.7-.2,1-.2.7.1,1.4.4,2.1.6,3.8,1.1,7.5,2.2,11.3,3.2,4.4,1.3,8.8,2.5,13.2,3.8,3.2.9,6.3,1.9,9.4,2.7,1.6.5,1.7.4,1.7,2.1,0,11.7,0,23.3,0,35,0,4.4-.5,8.6-2,12.6-.9,2.4-1.7,4.9-3.6,6.6-2,1.7-4.1,3.2-6.2,4.7-1.3.9-2.6,1.6-4,2.4,1.3,2.7,2.6,5.2,3.7,7.8.5,1.1,1.1,1.5,2.3,1.5,30.1,0,50.7,0,80.8,0,.5,0,.9,0,1.4,0v-.9c0-.3-.2-.6-.2-.9-.1-2.6-.2-5.1-.4-7.7,0-.3-.4-.7-.7-.7-1.7-.5-3.5-.8-5.2-1.3-2-.6-3.9-1.5-4.9-3.6-1.1-2.3-1-4.6-.9-7,0-.9-.2-1.2-1-1.2-3,0-27.6-.7-33.8-.8-2.2,0-2.2,0-2.2-2.2,0-6.4.1-12.8.2-19.2.1-13,.2-25.9.3-38.9,0-6.3,0-12.7.1-19,0-6.6.1-13.2.2-19.9,0-4.5,0-9.1,0-13.6,0-5.5-.1-11.1-.3-16.6,0-3.4-.9-6.8-1.9-10-1.2-3.9-2.9-7.6-5.6-10.8-1.6-2-3.5-3.8-5.6-5.4-3.8-2.9-8.2-4.6-12.8-5.8-3.8-1-7.7-1.6-11.7-1.6-4.2,0-8.2.5-12.3,1.5-3.6.8-7,2-10.4,3.4-.6.3-.8.6-.8,1.2,0,.5,0,.9,0,1.4.2,4.4.4,8.7.5,13.1,0,2.3.2,4.6.3,6.9,0,.4.2.7.3,1.1,4.3-1.2,8.4-2.4,12.6-3.5,4.5-1.2,8.9-2.3,13.6-1.4,3.2.6,5.9,2.2,7.8,4.9,2.6,3.5,3.6,7.6,3.6,11.9,0,6.6-.2,13.1-.3,19.7,0,8.4,0,16.9,0,25.3,0,.2,0,.4,0,.5-.2.3-.5.7-.8.8-2.6.6-5.2,1.2-7.8,1.7-4.2.9-8.5,1.8-12.7,2.7-3.6.8-7.2,1.6-10.9,2.3-1.5.3-3,.6-4.6.9-.3,0-.6-.1-1-.2,0-.3,0-.6.2-.9.5-.7,1-1.4,1.5-2.1,3.9-5.5,7.8-10.9,11.7-16.4,3.2-4.6,6.6-9,10.3-13.2,3.2-3.6,5.5-7.8,7.1-12.4,1.5-4.4,1.8-8.9.3-13.5-.8-2.3-1.9-4.4-4.1-5.6-2.8-1.6-5.6-1.2-8.3,0-.7.3-1.6.8-1.9,1.5-2.1,4.3-4,8.6-6,13-2,4.5-4.1,8.9-6.1,13.4-1.9,4.1-3.8,8.2-5.7,12.3-2.1,4.6-4.2,9.2-6.3,13.8-.1.3-.5.5-.8.8-.1-.4-.4-.7-.4-1.1,0-1.2.1-2.3.2-3.5.1-8.6.2-17.2.3-25.9,0-4.6,0-9.1.1-13.7,0-4.2.2-8.3.2-12.5,0-6.8,0-13.5.1-20.3,0-.3-.1-.6-.2-1.2-2.8,2.7-5.6,5.2-8,7.9-2.8,3.2-5.9,6-9.2,8.7-1.2,1-2.5,1.6-4.1,1.4-.9-.1-1.7,0-2.6,0-1,0-1.3.2-1.3,1.3,0,44.5,0,89.1,0,133.6,0,1.2,0,2.4,0,3.6Z"/>
  <path class="st0" d="M154.6,210.4c.3,0,.5-.2.5-.5v-11.7c0-.2-.1-.3-.5-.3-.6,0-1.1,0-1.4.3l-2.2,2c-.3.2-.2.5,0,.7.4.4.9.7,1.1.5l1-.9v9.6c0,.3,1,.4,1.4.4Z"/>
  <path class="st0" d="M160.9,207.6c-.9.7-1.6.8-3.2,1.2-.3.1,0,1,.2,1.4.2.2.5.1.5.1,3.6-.8,6.7-2.9,6.7-8.4v-.2c0-2.9-1.3-3.9-4.2-3.9h-.1c-2.9,0-4.2,1-4.2,3.9v.3c0,2.6,1,4,3.4,4h.1c.8,0,1.7-.2,2.3-.8-.2.9-.6,1.7-1.6,2.4ZM161,204.3h-.1c-1.9,0-2.2-.8-2.2-2.3v-.3c0-1.4.3-2.2,2.2-2.2h.1c1.9,0,2.2.8,2.2,2.2v.2c0,1.6-.5,2.3-2.2,2.3Z"/>
  <path class="st0" d="M166,206.8c0,2.8,1.4,3.6,4.2,3.6h.5c2.8,0,4.2-.8,4.2-3.6s-1-2.8-1.9-3.1c.9-.4,1.5-.9,1.5-2.7s-1.3-3.1-3.8-3.1h-.5c-2.5,0-3.8.7-3.8,3.1s.6,2.4,1.5,2.7c-.9.3-1.9.8-1.9,3.1ZM170.2,199.5h.5c1.4,0,1.8.6,1.8,1.7s-.3,1.6-1.8,1.6h-.5c-1.5,0-1.8-.7-1.8-1.6s.4-1.7,1.8-1.7ZM170.2,204.6h.5c1.6,0,2.2.5,2.2,2s-.3,2.1-2.2,2.1h-.5c-2,0-2.2-.7-2.2-2.1s.6-2,2.2-2Z"/>
  <path class="st0" d="M179.9,197.9c-2.8,0-4.1,1.3-4.1,4.1v4.3c0,2.8,1.3,4.1,4.1,4.1h.7c2.8,0,4.1-1.3,4.1-4.1v-4.3c0-2.8-1.3-4.1-4.1-4.1h-.7ZM182.7,202v4.3c0,1.6-.5,2.4-2.1,2.4h-.7c-1.6,0-2.1-.7-2.1-2.4v-4.3c0-1.6.5-2.4,2.1-2.4h.7c1.6,0,2.1.8,2.1,2.4Z"/>
  <path class="st0" d="M49,291.7c0-.4-.5-.8-1.5-.8s-2.6,0-2.9.8l-4.2,11.1c-.2.5-.5,1.2-.5,1.6,0-.3-.4-1.2-.6-1.6l-4.3-11.1c-.2-.6-.8-.8-1.4-.8s-2.8,0-2.9.8l-3.2,18.3c-.2,1,.8,1.3,1.3,1.3,1.1,0,3.4,0,3.5-.9l1.2-9.4c0-.1,0-.5.1-.9,0,.4.2.8.3.9l3.7,9.4c.3.8,2.3.9,2.7.9,1,0,1.3-.4,1.5-.9l3.7-9.4c0-.1.3-.6.3-1.1,0,.4,0,.9.1,1.1l1.2,9.3c.1.9,2.4.9,3.5.9s1.5-.2,1.3-1.3l-3-18.3Z"/>
  <path class="st0" d="M67.3,295.6c.7,0,.7-2.6.7-3.3s-.3-1.1-.8-1.1h-11.9c-.5,0-1.2.2-1.2.7v18.3c0,.4.5.7,1.5.7h11.6c.7,0,.7-2.6.7-3.3s-.3-1.1-.8-1.1h-8.1v-3.4h6.6c.7,0,.7-2.6.7-3.3s-.3-1.1-.8-1.1h-6.6v-3.1h8.2Z"/>
  <path class="st0" d="M85.1,306.5h-8.5l7.1-9.5c1.4-1.9,1.6-3.6,1.6-4.7s-.2-1.1-.9-1.1h-13c-.4,0-.7.6-.7,1.1,0,.7,0,3.3.7,3.3h7.5l-6.6,8.7c-2.1,2.8-2.2,3.9-2.2,5.5s.2,1.1.9,1.1h14.1c.7,0,.7-2.6.7-3.3s-.2-1.1-.7-1.1Z"/>
  <path class="st0" d="M103,290.9c-.8,0-3.8.2-3.8.9v12c0,2-.3,3-2.9,3h-.2c-2.6,0-2.9-1-2.9-3v-12c0-.5-.6-.9-1.2-.9s-3.8.2-3.8.9v12.3c0,5.4,2.6,7.2,7.9,7.2h.2c5.3,0,7.9-1.8,7.9-7.2v-12.3c0-.5-.6-.9-1.2-.9Z"/>
  <path class="st0" d="M123.3,290.9c-.8,0-3.9,0-3.9.7v10.6l-7-10.5c-.3-.5-.7-.8-1.2-.8s-3.7,0-3.7.8v18.8c0,.7,3,.8,3.7.8s1.2-.3,1.2-.8v-10.4l7,10.5c.5.6,2.9.7,3.7.7s1.2-.2,1.2-.7v-18.8c0-.6-.4-.9-1-.9Z"/>
  <path class="st0" d="M140,306.5h-7.4v-14.9c0-.5-.6-.8-1.2-.8s-3.8,0-3.8.8v18.6c0,.7,1.4.7,2.1.7h10.2c.7,0,.7-2.6.7-3.3s-.3-1.1-.7-1.1Z"/>
  <path class="st0" d="M159.7,310.4c0-.1,0-.2,0-.3l-6.8-18.5c-.2-.5-.7-.7-1-.7-1,0-3.4,0-3.7.7l-6.9,18.5c0,0,0,.2,0,.3,0,.6.8.9,1.6.9,1.6,0,3.2,0,3.5-.8l.9-2.9h6.5l1,2.9c.2.8,1.8.8,3.4.8s1.6-.2,1.6-.9ZM148.5,303.6l1.8-5.5c0-.3.1-.6.1-.9,0,.3,0,.6.2.9l1.8,5.5h-3.9Z"/>
  <path class="st0" d="M175.7,311.3c.8,0,1.6,0,1.6-.7s-.1-.5-.4-1l-3.4-5.4c2.2-.7,3.3-2.3,3.3-5.7v-1c0-4.4-1.8-6.3-7.8-6.3h-6.4c-.7,0-1.2.4-1.2,1.3v18c0,.7,3,.8,3.7.8s1.2-.2,1.2-.7v-5.9h2.2l3.8,6c.4.7,2.6.7,3.4.7ZM171.8,298.4c0,1.5-.7,1.8-2.4,1.8h-3v-4.6h3c1.6,0,2.4.3,2.4,1.8v1Z"/>
  <path class="st0" d="M184.7,310.5v-18.8c0-.5-.7-.8-1.2-.8s-3.7,0-3.7.8v18.8c0,.7,3,.8,3.7.8s1.2-.3,1.2-.8Z"/>
  <path class="st0" d="M202.1,291.2h-6.9c-.7,0-.9.2-.9.7v18.3c0,.6.6.7,1.5.7h6.3c6.2,0,9.2-1.9,9.2-7.7v-4.3c0-5.8-2.9-7.7-9.2-7.7ZM206.2,302.4c0,2.7-.4,4.1-4.1,4.1h-2.9v-10.9h2.9c3.7,0,4.1,1.3,4.1,4.1v2.7Z"/>
  <path class="st0" d="M227.3,295.6c.7,0,.7-2.6.7-3.3s-.3-1.1-.8-1.1h-11.9c-.5,0-1.2.2-1.2.7v18.3c0,.4.5.7,1.5.7h11.6c.7,0,.7-2.6.7-3.3s-.3-1.1-.8-1.1h-8.1v-3.4h6.6c.7,0,.7-2.6.7-3.3s-.3-1.1-.8-1.1h-6.6v-3.1h8.2Z"/>
  <path class="st0" d="M242.9,304.1c2.2-.7,3.3-2.3,3.3-5.7v-1c0-4.4-1.8-6.3-7.8-6.3h-6.4c-.7,0-1.2.4-1.2,1.3v18c0,.7,3,.8,3.7.8s1.2-.2,1.2-.7v-5.9h2.2l3.8,6c.4.7,2.6.7,3.4.7s1.6,0,1.6-.7-.1-.5-.4-1l-3.4-5.4ZM241.1,298.4c0,1.5-.7,1.8-2.4,1.8h-3v-4.6h3c1.6,0,2.4.3,2.4,1.8v1Z"/>
  <path class="st0" d="M265,290.9c-.8,0-3.9,0-3.9.7v10.6l-7-10.5c-.3-.5-.7-.8-1.2-.8s-3.7,0-3.7.8v18.8c0,.7,3,.8,3.7.8s1.2-.3,1.2-.8v-10.4l7,10.5c.5.6,2.9.7,3.7.7s1.2-.2,1.2-.7v-18.8c0-.6-.4-.9-1-.9Z"/>
  <path class="st0" d="M282.4,295.6c.7,0,.7-2.6.7-3.3s-.3-1.1-.8-1.1h-11.9c-.5,0-1.2.2-1.2.7v18.3c0,.4.5.7,1.5.7h11.6c.7,0,.7-2.6.7-3.3s-.3-1.1-.8-1.1h-8.1v-3.4h6.6c.7,0,.7-2.6.7-3.3s-.3-1.1-.8-1.1h-6.6v-3.1h8.2Z"/>
  <path class="st0" d="M294.8,286.3c0,.6-.4,1-1,1s-1-.4-1-1-2.1-.5-2.6-.5-.9.2-.9.6c0,2.4,1.5,3.7,4.5,3.7s4.5-1.3,4.5-3.7-.5-.6-.9-.6-2.6,0-2.6.5Z"/>
  <path class="st0" d="M300.8,300.3c-1.6,0-3.9.1-3.9.8v5.6c-.7,0-1.5.1-2.2.1h-.2c-3.6,0-3.9-1.3-3.9-4.1v-3.3c0-2.8.4-4.1,4.7-4.1h.5c2,0,4.3.4,4.7.4.7,0,1.2-1.9,1.2-3.6s-4.4-1.3-6.7-1.3h-.5c-6,0-9,1.9-9,7.7v4.9c0,5.8,2.9,7.7,9,7.7h.2c2.2,0,5-.5,6.3-1.1.5-.3.8-.5.8-1.1v-7.8c0-.5-.3-1-1-1Z"/>
  <path class="st0" d="M304.4,286v3.1c0,.7,2.7.7,3.4.7s1.2-.3,1.2-.7v-3.1c0-.4-.6-.7-1.2-.7s-3.4,0-3.4.7Z"/>
  <path class="st0" d="M308,290.9c-.8,0-3.7,0-3.7.8v18.8c0,.7,3,.8,3.7.8s1.2-.3,1.2-.8v-18.8c0-.5-.7-.8-1.2-.8Z"/>
  <path class="st0" d="M55.1,282.1v-7.3l6.4,7.4c.4.4,1.3.4,2,.4s.8,0,.8-.4,0-.4-.3-.7l-6.2-7.1,5.4-6.2c.2-.3.4-.5.4-.7,0-.4-.5-.4-.7-.4-.7,0-1.6,0-2,.4l-5.7,6.6v-6.5c0-.4-.3-.6-.6-.6s-1.8,0-1.8.4v14.5c0,.4,1,.4,1.8.4s.6-.2.6-.6Z"/>
  <path class="st0" d="M71,282.7c4.4,0,6.1-1.8,6.1-5.7v-4c0-3.9-1.7-5.6-6.1-5.6h-.2c-4.4,0-6.1,1.7-6.1,5.6v4c0,3.9,1.6,5.7,6.1,5.7h.2ZM67.3,276.8v-3.6c0-2.6.8-3.7,3.5-3.7h.2c2.7,0,3.6,1.1,3.6,3.7v3.6c0,2.8-.9,3.7-3.6,3.7h-.2c-2.6,0-3.5-.9-3.5-3.7Z"/>
  <path class="st0" d="M85.3,269.4h.2c1.3,0,2.6.2,3,.3.3,0,.5-.8.5-1.6s-2.6-.7-3.7-.7h-.2c-3.9,0-5.8,1.4-5.8,5.6v4.1c0,4.2,1.8,5.6,5.7,5.6h.2c1.3,0,3.9-.2,3.9-.8s-.1-1.7-.6-1.6c-.6.1-1.7.3-3,.3h-.2c-2.8,0-3.4-1.1-3.4-3.9v-3.3c0-2.8.6-3.9,3.5-3.9Z"/>
  <path class="st0" d="M92.4,282.3l1-3.1h5.5l1,3c.1.5.8.5,1.8.5s.8-.1.8-.4,0-.1,0-.2l-5-14.3c-.1-.3-.3-.5-.6-.5-.6,0-1.7,0-1.8.4l-5.1,14.3c0,0,0,.1,0,.2,0,.3.4.4.8.4.8,0,1.6,0,1.7-.4ZM96,271.2c0-.2.1-.5.2-.7,0,.2,0,.5.1.7l1.9,6h-4.2l2-6Z"/>
  <path class="st0" d="M113.5,280.8c0-.3-.2-.6-.5-.6h-6.4v-4.2h5.8c.3,0,.4-1.2.4-1.6s-.2-.6-.5-.6h-5.7v-4h6.6c.3,0,.4-1.2.4-1.6s-.2-.6-.5-.6h-8.3c-.4,0-.6.2-.6.5v13.9c0,.3.4.4.9.4h8.1c.3,0,.4-1.2.4-1.6Z"/>
  <path class="st0" d="M124.2,280.2h-5.9v-12.3c0-.3-.3-.6-.6-.6-.5,0-1.9,0-1.9.4v14.3c0,.3.6.4,1.1.4h7.4c.3,0,.4-1.2.4-1.6s-.2-.6-.5-.6Z"/>
  <path class="st0" d="M128.8,282.1v-14.2c0-.3-.3-.6-.6-.6s-1.8,0-1.8.4v14.5c0,.4,1.3.4,1.8.4s.6-.2.6-.6Z"/>
  <path class="st0" d="M128.8,266v-1.5c0-.3-.3-.5-.6-.5s-1.7,0-1.7.4v1.8c0,.3,1.2.4,1.7.4s.6-.2.6-.5Z"/>
  <path class="st0" d="M137.4,282.3l1-3.1h5.5l1,3c.1.5.8.5,1.8.5s.8-.1.8-.4,0-.1,0-.2l-5-14.3c-.1-.3-.3-.5-.6-.5-.6,0-1.7,0-1.8.4l-5.1,14.3c0,0,0,.1,0,.2,0,.3.4.4.8.4.8,0,1.6,0,1.7-.4ZM141,271.2c0-.2.1-.5.2-.7,0,.2,0,.5.1.7l1.9,6h-4.2l2-6Z"/>
  <path class="st0" d="M151.5,282.1v-10.2l6.7,10.3c.2.3,1.4.4,1.8.4s.6-.2.6-.5v-14.2c0-.4-.2-.6-.5-.6s-1.9,0-1.9.4v10.4l-6.7-10.3c-.1-.2-.4-.4-.6-.4-.5,0-1.8,0-1.8.4v14.5c0,.4,1.3.4,1.8.4s.6-.2.6-.6Z"/>
  <path class="st0" d="M164.8,282.3l1-3.1h5.5l1,3c.1.5.8.5,1.8.5s.8-.1.8-.4,0-.1,0-.2l-5-14.3c-.1-.3-.3-.5-.6-.5-.6,0-1.7,0-1.8.4l-5.1,14.3c0,0,0,.1,0,.2,0,.3.4.4.8.4.8,0,1.6,0,1.7-.4ZM168.4,271.2c0-.2.1-.5.2-.7,0,.2,0,.5.1.7l1.9,6h-4.2l2-6Z"/>
  <path class="st0" d="M181.7,267.6h-4.6c-.4,0-.7.1-.7.5v13.9c0,.4.4.4,1,.4h4.3c4.4,0,6.4-1.4,6.4-5.6v-3.6c0-4.2-2.1-5.6-6.4-5.6ZM185.6,276.5c0,2.7-.9,3.8-3.9,3.8h-2.8v-10.5h2.8c3,0,3.9,1.1,3.9,3.8v2.9Z"/>
  <path class="st0" d="M196.5,282.7c4.4,0,6.1-1.8,6.1-5.7v-4c0-3.9-1.7-5.6-6.1-5.6h-.2c-4.4,0-6.1,1.7-6.1,5.6v4c0,3.9,1.6,5.7,6.1,5.7h.2ZM192.8,276.8v-3.6c0-2.6.8-3.7,3.5-3.7h.2c2.7,0,3.6,1.1,3.6,3.7v3.6c0,2.8-.9,3.7-3.6,3.7h-.2c-2.6,0-3.5-.9-3.5-3.7Z"/>
  <path class="st0" d="M213.4,280.2h-5.9v-12.3c0-.3-.3-.6-.6-.6-.5,0-1.9,0-1.9.4v14.3c0,.3.6.4,1.1.4h7.4c.3,0,.4-1.2.4-1.6s-.2-.6-.5-.6Z"/>
  <path class="st0" d="M217.4,267.3c-.5,0-1.9.1-1.9.5v9.5c0,4,1.8,5.4,5.5,5.4h.2c3.7,0,5.5-1.3,5.5-5.4v-9.3c0-.3-.3-.6-.6-.6s-1.9.1-1.9.5v9.3c0,2.4-.7,3.3-3.1,3.3h-.2c-2.3,0-3-.9-3-3.3v-9.2c0-.3-.3-.6-.6-.6Z"/>
  <path class="st0" d="M235.7,267.3c-.5,0-1.9,0-1.9.4v14.3c0,.3.6.4,1.1.4h7.4c.3,0,.4-1.2.4-1.6s-.2-.6-.5-.6h-5.9v-12.3c0-.3-.3-.6-.6-.6Z"/>
  <path class="st0" d="M246.2,267.3c-.5,0-1.8,0-1.8.4v14.5c0,.4,1.3.4,1.8.4s.6-.2.6-.6v-14.2c0-.3-.3-.6-.6-.6Z"/>
  <path class="st0" d="M246.8,266v-1.5c0-.3-.3-.5-.6-.5s-1.7,0-1.7.4v1.8c0,.3,1.2.4,1.7.4s.6-.2.6-.5Z"/>
  <path class="st0" d="M253.3,282.7c2.4,0,4.9-.8,4.9-4.3s-6.6-4.1-6.6-7.2.8-1.7,2.3-1.7,2.5.2,3.2.3c.4,0,.7-.5.7-1.2,0-.4,0-.6-.4-.7-.8-.4-2.8-.5-3.7-.5-2.9,0-4.6,1.2-4.6,4.1,0,4.7,6.6,3.9,6.6,7.2s-1.3,2-2.5,2-3.1-.4-3.6-.5c-.4,0-.6.6-.7,1.4,0,.4,0,.5.4.7.9.3,2.5.5,4,.5Z"/>
  <path class="st0" d="M269.3,269.8c.3,0,.4-1.2.4-1.6s-.2-.6-.5-.6h-8.3c-.4,0-.6.2-.6.5v13.9c0,.3.4.4.9.4h8.1c.3,0,.4-1.2.4-1.6s-.2-.6-.5-.6h-6.4v-4.2h5.8c.3,0,.4-1.2.4-1.6s-.2-.6-.5-.6h-5.7v-4h6.6Z"/>
  <path class="st0" d="M275.6,280.6c-1.6,0-3.1-.4-3.6-.5-.4,0-.6.6-.7,1.4,0,.4,0,.5.4.7.9.3,2.5.5,4,.5,2.4,0,4.9-.8,4.9-4.3s-6.6-4.1-6.6-7.2.8-1.7,2.3-1.7,2.5.2,3.2.3c.4,0,.7-.5.7-1.2,0-.4,0-.6-.4-.7-.8-.4-2.8-.5-3.7-.5-2.9,0-4.6,1.2-4.6,4.1,0,4.7,6.6,3.9,6.6,7.2s-1.3,2-2.5,2Z"/>
  <path class="st0" d="M282.8,264.3v1.8c0,.3,1.2.4,1.7.4s.6-.2.6-.5v-1.5c0-.3-.3-.5-.6-.5s-1.7,0-1.7.4Z"/>
  <path class="st0" d="M284.5,267.3c-.5,0-1.8,0-1.8.4v14.5c0,.4,1.3.4,1.8.4s.6-.2.6-.6v-14.2c0-.3-.3-.6-.6-.6Z"/>
  <path class="st0" d="M220.5,231c6.4-2.1,12.5-4.6,18.3-7.7,2.5,2.2,9.5,7.5,17.6,7.1,9.3-.5,17.1-7.3,17.1-7.3,0,0-7.4-4.5-16.7-4.8-4.4-.2-8.8.7-12.3,1.8,5.5-3.4,10.7-7.3,15.4-11.7.5-.5,1-1,1.5-1.5,2.6,1.2,10.6,4.4,18.1,1.8,8.3-3,13.5-11.3,13.5-11.3,0,0-7.9-2.1-16.4.2-4.3,1.1-8.4,3.4-11.3,5.4,5.1-5.6,9.5-11.7,13.2-18.5,2.9.4,10.7,1.1,16.6-3.2,6.7-4.8,9.3-13.8,9.3-13.8,0,0-7.7.2-14.8,4.4-3.4,2-6.3,4.9-8.4,7.3,3.1-6.5,5.7-13.5,7.6-20.9,2.6-.2,10.1-1.1,14.7-6.3,5.2-5.8,5.7-14.5,5.7-14.5,0,0-7,1.8-12.7,7.1-3,2.8-5.2,6.4-6.6,9.2,1.6-7.4,2.6-15.3,3-23.5,2.5-.6,9.1-2.6,12.5-8,3.9-6.1,3.1-14.2,3.1-14.2,0,0-6.2,2.7-10.6,8.4-2.4,3.1-4,7-4.9,9.8,0-1.1,0-2.1,0-3.2,0-7.6-.3-14.1-.9-19.8,2.2-1,7.7-4.2,9.8-9.7,2.4-6.3,0-13.5,0-13.5,0,0-5.1,3.6-8,9.7-1.4,2.9-2,6.2-2.4,8.8-1.2-8.4-3.3-15-6.1-21.1,1.6-1.5,5.6-5.9,5.8-11.4.2-6.2-3.9-11.9-3.9-11.9,0,0-3.4,4.7-4.2,10.9-.4,3.1,0,6.4.6,8.8-2.5-4.6-5.4-9-8.9-13.8,1.1-1.8,3.5-6.5,2.4-11.2-1.2-5.6-6.2-9.6-6.2-9.6,0,0-2,4.9-1.2,10.6.3,2,.9,4,1.6,5.8-1.1-1.5-2.3-3.1-3.6-4.7l-1.9-2.2c-.6-2.5-2-6.2-5.1-8.6-4.5-3.5-11-3.4-11-3.4,0,0,1.7,5.1,5.9,8.9,2.6,2.4,6,3.9,8.2,4.8l1.8,2.1c1,1.4,2,2.7,3,3.9-1.3-.8-2.6-1.6-4.1-2-5.5-1.7-9.1,1.5-9.1,1.5,0,0,1.2,4.6,6.6,6.3,3.9,1.2,8.5.5,10.9,0,2.6,3.5,4.8,6.9,6.8,10.3-.9-.9-1.9-1.8-3-2.5-5.3-3.3-10-.9-10-.9,0,0,0,5.2,5.3,8.5,3.9,2.4,9.3,2.9,11.8,3,2.1,5.1,3.7,10.6,4.8,17.3-.7-1.8-1.7-3.6-3-5.2-4.3-5.2-9.9-4.3-9.9-4.3,0,0-1.8,5.4,2.5,10.5,3.3,4,8.9,6.3,11.4,7.2.4,5,.6,10.5.6,16.8-.4-1.8-.9-3.6-1.8-5.3-3.4-6.4-9.5-6.8-9.5-6.8,0,0-3.1,5.2.3,11.6,2.7,5.2,8.5,9,10.6,10.4-.4,6.5-1.3,12.8-2.5,18.9,0-2.5-.2-5.1-1-7.5-2.5-7.4-8.8-8.8-8.8-8.8,0,0-4.2,5-1.7,12.4,2,5.9,7.3,10.9,9.4,12.7-1.9,6.7-4.4,13.1-7.4,19.1.9-3.1,1.6-6.9,1.3-10.4-.9-8.2-7.2-11.2-7.2-11.2,0,0-5.5,4.2-4.6,12.5.7,6.7,5.2,13.3,7,15.5-3.4,5.7-7.4,11-11.9,15.8,1.8-2.9,3.6-6.4,4.3-10.1,1.5-8.7-4-13.6-4-13.6,0,0-6.8,2.7-8.4,11.4-1.2,6.9,1.4,14.8,2.5,17.8-5.4,4.8-11.3,9-17.7,12.6,3.2-2.5,7-6.1,9.2-10.4,4.2-8.3,0-15,0-15,0,0-7.8.6-12,9-3.5,7-3.1,16.5-2.9,19.3-5.7,2.8-11.8,5.1-18.2,6.9,3.5-1.7,7.5-4.2,10.3-7.4,6.4-7.4,3.9-15.3,3.9-15.3,0,0-8.1-1.3-14.5,6.1-5.2,6-7.3,15.4-7.8,18.7-6.5,1.4-13.4,2.3-20.5,2.7,4.2-1.1,9.3-2.9,13.2-6.1,8.1-6.5,7-15.1,7-15.1,0,0-8.1-2.9-16.2,3.5-6.6,5.3-10.5,14.6-11.6,17.9-.5,0-7.6,0-7.6,0-.4,0-.8-.3-.9-.7l-2-6.2c-.3-.9-1.5-.9-1.8,0l-2,6.2c-.1.4-.5.7-.9.7,0,0-6.5,0-7,0-1.2-3.3-5.1-12.6-11.6-17.9-8.1-6.5-16.2-3.5-16.2-3.5,0,0-1.1,8.6,7,15.1,3.9,3.1,9,5,13.2,6.1-7.1-.4-13.9-1.3-20.5-2.7-.6-3.3-2.6-12.6-7.8-18.7-6.4-7.4-14.5-6.1-14.5-6.1,0,0-2.5,7.9,3.9,15.3,2.8,3.3,6.8,5.7,10.3,7.4-6.4-1.8-12.5-4.1-18.2-6.9.2-2.8.7-12.3-2.9-19.3-4.2-8.3-12-9-12-9,0,0-4.1,6.6,0,15,2.2,4.3,6,7.9,9.2,10.4-6.4-3.6-12.3-7.8-17.7-12.6,1.1-2.9,3.7-10.8,2.5-17.8-1.5-8.7-8.4-11.4-8.4-11.4,0,0-5.5,4.9-4,13.6.6,3.7,2.4,7.2,4.3,10.1-4.5-4.8-8.5-10.1-11.9-15.8,1.7-2.3,6.3-8.9,7-15.5.9-8.2-4.6-12.5-4.6-12.5,0,0-6.3,3-7.2,11.2-.4,3.5.3,7.3,1.3,10.4-3-5.9-5.4-12.2-7.4-18.9,1.5-1.2,7.8-6.7,10-13.2,2.5-7.4-1.7-12.4-1.7-12.4,0,0-6.4,1.5-8.8,8.8-1.3,3.9-1.2,8.5-.7,11.9-1.7-7.1-2.9-14.6-3.4-22.5,0,0,8.1-4.5,11.5-10.9,3.4-6.4.3-11.6.3-11.6,0,0-6.1.4-9.5,6.8-2.3,4.4-2.5,10-2.5,13.2-.1-2.6-.2-5.2-.2-7.9,0-6.8.2-12.7.7-17.9,2.3-.8,8.2-3.2,11.6-7.3,4.3-5.2,2.5-10.5,2.5-10.5,0,0-5.6-.8-9.9,4.3-1.4,1.7-2.4,3.7-3.2,5.7,1.2-7.5,3.1-13.5,5.7-19.1,2.5,0,7.9-.6,11.8-3,5.3-3.3,5.3-8.5,5.3-8.5,0,0-4.7-2.4-10,.9-.8.5-1.5,1-2.1,1.6,2.5-3.9,5.5-7.9,8.8-12.3,2.3.4,7.2,1,11.1-.5,5.4-1.9,6.4-6.6,6.4-6.6,0,0-3.7-3-9.1-1.1-1.9.7-3.7,1.9-5.2,3.2,1.1-2.1,2.4-5.2,2.8-8.3.7-5.7-1.2-10.6-1.2-10.6,0,0-5,4.1-6.2,9.6-.8,3.8.5,7.5,1.6,9.8-5.7,7.5-10.3,13.7-13.8,20,.6-2.5,1.3-6.3.8-9.9-.8-6.2-4.2-10.9-4.2-10.9,0,0-4.2,5.6-3.9,11.9.2,5.6,4.4,10.1,5.9,11.5-3.3,6.5-5.6,13.3-7,21.8-.3-2.6-1-5.7-2.3-8.4-2.9-6.1-8-9.7-8-9.7,0,0-2.3,7.2,0,13.5,2,5.4,7.4,8.5,9.6,9.6-.7,6-1,12.9-1,21.1s0,.4,0,.6c-.9-2.4-2.2-5-3.9-7.2-4.4-5.8-10.6-8.4-10.6-8.4,0,0-.8,8.1,3.1,14.2,3.1,4.8,8.7,6.9,11.6,7.7.3,7.5,1.2,14.6,2.6,21.5-1.4-2.4-3.3-5.1-5.6-7.3-5.7-5.3-12.7-7.1-12.7-7.1,0,0,.5,8.7,5.7,14.5,4.3,4.8,10.9,5.9,14,6.2,1.9,7.5,4.5,14.6,7.7,21.2-2.1-2.5-5-5.3-8.4-7.3-7.1-4.2-14.8-4.4-14.8-4.4,0,0,2.5,8.9,9.3,13.8,5.9,4.2,13.8,3.6,16.6,3.2,3.7,6.7,8.1,12.9,13.2,18.5-3-2-7-4.3-11.3-5.4-8.5-2.2-16.4-.2-16.4-.2,0,0,5.2,8.4,13.5,11.3,7.5,2.7,15.6-.6,18.1-1.8.5.5,1,1,1.5,1.5,4.7,4.4,9.9,8.3,15.4,11.7-3.5-1-7.9-1.9-12.3-1.8-9.3.3-16.7,4.8-16.7,4.8,0,0,7.8,6.9,17.1,7.3,8.1.4,15.1-4.9,17.6-7.1,5.7,3.1,11.8,5.6,18.3,7.7-3.6,0-7.7.3-11.6,1.4-9.4,2.7-15.8,9.3-15.8,9.3,0,0,9.8,5,19.4,3.1,8.1-1.6,13.8-8.4,15.9-11.5,6.7,1.7,13.7,2.8,21,3.5-4.1.6-9.2,1.7-13.7,4-9.2,4.6-14.6,12.6-14.6,12.6,0,0,11.1,3.4,20.7-.5,8.7-3.4,13.3-12.5,14.6-15.6,2.1,0,4.3.1,6.4.1l4.1,3c.3.2.5.7.3,1.1l-2,6.2c-.3.9.7,1.6,1.5,1.1l5.3-3.8c.3-.2.8-.2,1.1,0l5.3,3.8c.8.5,1.8-.2,1.5-1.1l-2-6.2c-.1-.4,0-.8.3-1.1,0,0,4.2-3,4.2-3,2.3,0,4.6,0,6.9-.2,1.4,3.1,6,12.2,14.6,15.6,9.6,3.8,20.7.5,20.7.5,0,0-5.4-7.9-14.6-12.6-4.5-2.3-9.6-3.4-13.7-4,7.3-.6,14.3-1.8,21-3.5,2.2,3.1,7.8,9.8,15.9,11.5,9.6,1.9,19.4-3.1,19.4-3.1,0,0-6.4-6.5-15.8-9.3-3.9-1.1-8.1-1.4-11.6-1.4Z"/>
</svg>