<?xml version="1.0" encoding="UTF-8"?>
<svg id="Layer_1" xmlns="http://www.w3.org/2000/svg" version="1.1" viewBox="0 0 566.7 159.2">
  <!-- Generator: Adobe Illustrator 30.3.0, SVG Export Plug-In . SVG Version: 2.1.3 Build 157)  -->
  <defs>
    <style>
      .st0 {
        fill: #fff;
      }
    </style>
  </defs>
  <path class="st0" d="M188,128h-5.4c5.3-4.4,5.6-6.1,5.6-8.2,0-3.9-2-5.1-6-5.1s-3,.1-4,.4c-.7.2-.8.4-.8,1.1,0,1.1.4,2.4,1.1,2.3.6,0,1.4-.3,2.7-.3,2,0,2.8.6,2.8,1.7,0,1.9-1.1,2.8-6.6,8.1-.3.4-.5,2.2-.5,2.7s0,.9.6.9h10.4c.6,0,.6-2.1.6-2.7s-.2-.9-.6-.9Z"/>
  <path class="st0" d="M197.3,114.6h-1.4c-4,0-6,2.1-6,5.4v6.4c0,3.4,2,5.4,6,5.4h1.4c4,0,6-2,6-5.4v-6.4c0-3.4-2-5.4-6-5.4ZM199.2,126.5c0,1-.5,1.8-1.9,1.8h-1.4c-1.4,0-1.9-.8-1.9-1.8v-6.5c0-1,.5-1.8,1.9-1.8h1.4c1.4,0,1.9.8,1.9,1.8v6.5Z"/>
  <path class="st0" d="M215.9,128h-5.4c5.3-4.4,5.6-6.1,5.6-8.2,0-3.9-2-5.1-6-5.1s-3,.1-4,.4c-.7.2-.8.4-.8,1.1,0,1.1.4,2.4,1.1,2.3.6,0,1.4-.3,2.7-.3,2,0,2.8.6,2.8,1.7,0,1.9-1.1,2.8-6.6,8.1-.3.4-.5,2.2-.5,2.7s0,.9.6.9h10.4c.6,0,.6-2.1.6-2.7s-.2-.9-.6-.9Z"/>
  <path class="st0" d="M223.9,120.9h-1.5l.3-2.7h5.6c.6,0,.7-2.1.7-2.4,0-.7-.4-.9-.6-.9h-7.3c-1.3,0-1.9,0-1.9.8l-.6,7.9c0,.6.2.7.9.7h3.1c2.6,0,3,.7,3,1.9,0,1.8-1,2.3-2.6,2.3s-3.9-.4-4.2-.4c-.8,0-.9,1.8-.9,2.5s0,.8.4.8c1.8.3,3.6.5,4.7.5,3.8,0,6.6-1.3,6.6-5.2v-.7c0-3.7-1.8-5.1-5.5-5.1Z"/>
  <path class="st0" d="M53.3,96.3c0,.4.1.5.6.5.9,0,1.8,0,2.7,0,.2,0,.4.1.5.3.7,1.6,1.5,3,2.5,4.4,1.1,1.5,2.4,2.6,4,3.4,1.3.6,2.7,1.2,4,1.7.9.3,1.9.6,3,.9-.3-.7-.5-1.3-.7-1.9-1.5-3.5-2.7-7.2-3-11-.2-2.1-.4-4.2-.5-6.4,0-1.3,0-2.6,0-3.9,0-4.5.2-8.9.2-13.4,0-.3.1-.6.2-.9.2.2.4.4.6.7,1.2,2.7,2.4,5.4,3.6,8.1.7,1.5,1.3,3,2,4.4,1.3,2.9,2.5,5.8,3.8,8.6,1.1,2.5,2.3,5.1,3.4,7.6.3.7.5.8,1.3.7.2,0,.3,0,.5-.1,1.6-.4,3-1,4.2-2.1,2-1.8,2.6-4.3,2.9-6.8,0-.3,0-.6-.2-.8-.9-1.3-1.8-2.5-2.7-3.7-1.9-2.6-3.8-5.3-5.6-7.9-1.9-2.7-3.8-5.3-5.7-8-.9-1.2-1.8-2.4-2.6-3.6-.6-.8-1.2-1.6-1.7-2.5,0-.1,0-.3-.1-.5.2,0,.4-.1.5,0,.4,0,.8.2,1.1.3,2.1.6,4.1,1.2,6.2,1.8,2.4.7,4.8,1.4,7.2,2.1,1.7.5,3.4,1,5.2,1.5.9.2.9.2.9,1.2,0,6.4,0,12.8,0,19.1,0,2.4-.3,4.7-1.1,6.9-.5,1.3-.9,2.7-2,3.6-1.1.9-2.2,1.7-3.4,2.6-.7.5-1.4.9-2.2,1.3.7,1.5,1.4,2.8,2,4.3.3.6.6.8,1.3.8,16.5,0,30.3,0,46.7,0,.3,0,.5,0,.8,0v-.5c0-.2-.1-.3-.1-.5,0-1.4-.1-2.8-.2-4.2,0-.1-.2-.4-.4-.4-.9-.3-1.9-.4-2.9-.7-1.1-.3-2.1-.8-2.7-2-.6-1.2-.5-2.5-.5-3.8,0-.5,0-.6-.5-.7-1.6,0-17.6-.4-21-.5-1.2,0-1.2,0-1.2-1.2,0-3.5,0-7,0-10.5,0-7.1.1-14.2.2-21.3,0-3.5,0-6.9,0-10.4,0-3.6,0-7.2.1-10.9,0-2.5,0-5,0-7.4,0-3,0-6.1-.1-9.1,0-1.9-.5-3.7-1.1-5.5-.7-2.1-1.6-4.2-3-5.9-.9-1.1-1.9-2.1-3-2.9-2.1-1.6-4.5-2.5-7-3.2-2.1-.5-4.2-.9-6.4-.9-2.3,0-4.5.3-6.7.8-2,.5-3.8,1.1-5.7,1.9-.3.1-.5.3-.4.7,0,.3,0,.5,0,.8,0,2.4.2,4.8.3,7.2,0,1.3.1,2.5.2,3.8,0,.2,0,.4.1.6,2.3-.6,4.6-1.3,6.9-1.9,2.4-.7,4.9-1.3,7.5-.8,1.8.3,3.2,1.2,4.3,2.7,1.4,1.9,2,4.2,2,6.5,0,3.6-.1,7.2-.1,10.8,0,4.6,0,9.2,0,13.9,0,0,0,.2,0,.3-.1.2-.3.4-.4.4-1.4.3-2.8.6-4.3,1-2.3.5-4.6,1-7,1.5-2,.4-4,.9-5.9,1.3-.8.2-1.7.4-2.5.5-.2,0-.4,0-.5,0,0-.2,0-.4.1-.5.3-.4.5-.8.8-1.2,2.1-3,4.3-6,6.4-9,1.8-2.5,3.6-4.9,5.6-7.2,1.7-2,3-4.3,3.9-6.8.8-2.4,1-4.9.2-7.4-.4-1.3-1-2.4-2.2-3.1-1.5-.9-3.1-.6-4.6,0-.4.2-.9.4-1,.8-1.1,2.3-2.2,4.7-3.3,7.1-1.1,2.4-2.2,4.9-3.4,7.3-1,2.2-2.1,4.5-3.1,6.7-1.2,2.5-2.3,5-3.5,7.5,0,.2-.3.3-.4.4,0-.2-.2-.4-.2-.6,0-.6,0-1.3,0-1.9,0-4.7.1-9.4.2-14.1,0-2.5,0-5,0-7.5,0-2.3,0-4.6.1-6.8,0-3.7,0-7.4,0-11.1,0-.2,0-.3-.1-.7-1.5,1.5-3,2.8-4.4,4.3-1.6,1.7-3.2,3.3-5,4.8-.7.5-1.3.9-2.2.7-.5,0-1,0-1.4,0-.5,0-.7.1-.7.7,0,24.4,0,48.7,0,73.1,0,.7,0,1.3,0,2Z"/>
  <path class="st0" d="M75.1,122.3c.3,0,.4-.1.4-.4v-8.8c0-.1-.1-.2-.4-.2-.5,0-.8,0-1,.2l-1.7,1.5c-.2.2-.1.4,0,.5.3.3.7.5.8.4l.7-.7v7.3c0,.2.8.3,1.1.3Z"/>
  <path class="st0" d="M79.9,120.2c-.7.5-1.2.6-2.4.9-.2,0,0,.8.2,1.1.1.1.3.1.4,0,2.7-.6,5.1-2.2,5.1-6.4v-.2c0-2.2-1-3-3.2-3h-.1c-2.2,0-3.2.8-3.2,3v.2c0,2,.8,3,2.6,3h.1c.6,0,1.3-.1,1.8-.6-.2.7-.5,1.3-1.2,1.8ZM79.9,117.7h-.1c-1.5,0-1.7-.6-1.7-1.7v-.2c0-1,.2-1.7,1.7-1.7h.1c1.5,0,1.7.6,1.7,1.7v.2c0,1.2-.3,1.8-1.7,1.8Z"/>
  <path class="st0" d="M83.7,119.6c0,2.1,1,2.7,3.2,2.7h.4c2.1,0,3.2-.6,3.2-2.7s-.7-2.1-1.4-2.4c.7-.3,1.1-.7,1.1-2.1s-1-2.3-2.9-2.3h-.4c-1.9,0-2.9.5-2.9,2.3s.4,1.8,1.1,2.1c-.7.2-1.4.6-1.4,2.4ZM86.9,114.1h.4c1,0,1.4.4,1.4,1.3s-.2,1.2-1.4,1.2h-.4c-1.1,0-1.4-.5-1.4-1.2s.3-1.3,1.4-1.3ZM86.9,117.9h.4c1.2,0,1.7.4,1.7,1.5s-.2,1.6-1.7,1.6h-.4c-1.5,0-1.7-.5-1.7-1.6s.5-1.5,1.7-1.5Z"/>
  <path class="st0" d="M94.3,112.9c-2.1,0-3.1,1-3.1,3.1v3.2c0,2.1,1,3.1,3.1,3.1h.5c2.1,0,3.1-1,3.1-3.1v-3.2c0-2.1-1-3.1-3.1-3.1h-.5ZM96.4,115.9v3.3c0,1.2-.4,1.8-1.6,1.8h-.5c-1.2,0-1.6-.6-1.6-1.8v-3.3c0-1.2.4-1.8,1.6-1.8h.5c1.2,0,1.6.6,1.6,1.8Z"/>
  <path class="st0" d="M193.4,106.8c1.3,0,1.8-.5,2.1-1.2l5-12.8c0-.1.4-.8.4-1.5,0,.6.1,1.2.2,1.5l1.6,12.7c.1,1.2,3.3,1.2,4.8,1.2s2.1-.3,1.8-1.8l-4.1-24.8c-.1-.5-.6-1.1-2-1.1s-3.5.1-3.9,1.1l-5.7,15.1c-.2.6-.7,1.7-.7,2.1,0-.4-.6-1.6-.8-2.1l-5.9-15.1c-.3-.8-1.1-1.1-1.9-1.1s-3.8,0-4,1.1l-4.3,24.8c-.3,1.4,1.1,1.8,1.8,1.8,1.5,0,4.7,0,4.8-1.2l1.6-12.7c0-.1.1-.7.1-1.2,0,.5.3,1.1.4,1.3l5,12.8c.4,1.1,3.1,1.2,3.6,1.2Z"/>
  <path class="st0" d="M230.1,85.5c1,0,1-3.5,1-4.5s-.4-1.5-1-1.5h-16.1c-.7,0-1.6.3-1.6,1v24.9c0,.6.7,1,2,1h15.8c1,0,1-3.5,1-4.5s-.4-1.5-1-1.5h-11v-4.6h9c1,0,1-3.5,1-4.5s-.4-1.5-1-1.5h-9v-4.2h11.1Z"/>
  <path class="st0" d="M254.3,100.4h-11.6l9.7-12.9c1.9-2.6,2.2-4.9,2.2-6.4s-.3-1.5-1.2-1.5h-17.6c-.6,0-.9.8-.9,1.5,0,1,0,4.5.9,4.5h10.1l-8.9,11.9c-2.9,3.8-3,5.3-3,7.5s.3,1.5,1.2,1.5h19.2c1,0,1-3.5,1-4.5s-.3-1.5-1-1.5Z"/>
  <path class="st0" d="M278.5,79.1c-1,0-5.1.2-5.1,1.2v16.3c0,2.7-.4,4.1-4,4.1h-.3c-3.5,0-4-1.3-4-4.1v-16.3c0-.6-.9-1.2-1.6-1.2s-5.1.2-5.1,1.2v16.7c0,7.3,3.5,9.7,10.7,9.7h.3c7.2,0,10.7-2.4,10.7-9.7v-16.7c0-.6-.9-1.2-1.6-1.2Z"/>
  <path class="st0" d="M306.2,79.1c-1.1,0-5.3,0-5.3.9v14.4l-9.5-14.3c-.4-.6-.9-1-1.6-1s-5.1,0-5.1,1v25.6c0,1,4,1,5.1,1s1.6-.4,1.6-1v-14.2l9.5,14.2c.7.9,4,1,5.1,1s1.6-.3,1.6-1v-25.5c0-.8-.5-1.2-1.3-1.2Z"/>
  <path class="st0" d="M328.7,100.4h-10v-20.2c0-.6-.9-1-1.6-1s-5.1,0-5.1,1v25.2c0,.9,1.9,1,2.9,1h13.9c1,0,1-3.5,1-4.5s-.4-1.5-1-1.5Z"/>
  <path class="st0" d="M346.1,80.2c-.3-.7-.9-1-1.4-1-1.3,0-4.6,0-5,1l-9.4,25.1c0,.1,0,.2,0,.4,0,.9,1.1,1.2,2.2,1.2,2.2,0,4.3,0,4.7-1.1l1.3-3.9h8.8l1.3,3.9c.3,1,2.4,1.1,4.7,1.1s2.2-.3,2.2-1.2,0-.3,0-.4l-9.2-25.1ZM340.2,96.4l2.5-7.5c.1-.4.1-.9.2-1.2,0,.4.1.9.2,1.2l2.5,7.5h-5.3Z"/>
  <path class="st0" d="M374.3,97.1c3-1,4.5-3.1,4.5-7.8v-1.3c0-6-2.5-8.5-10.6-8.5h-8.7c-1,0-1.7.6-1.7,1.7v24.5c0,1,4,1.1,5.1,1.1s1.6-.3,1.6-1v-8.1h3l5.1,8.1c.6.9,3.5.9,4.7.9s2.1,0,2.1-1-.1-.7-.5-1.3l-4.6-7.4ZM371.9,89.3c0,2.1-1,2.5-3.2,2.5h-4.1v-6.3h4.1c2.2,0,3.2.4,3.2,2.5v1.3Z"/>
  <path class="st0" d="M387.9,79.1c-1,0-5.1,0-5.1,1v25.6c0,1,4,1,5.1,1s1.6-.4,1.6-1v-25.6c0-.6-.9-1-1.6-1Z"/>
  <path class="st0" d="M413,79.5h-9.4c-.9,0-1.2.3-1.2,1v24.9c0,.9.8,1,2,1h8.6c8.5,0,12.5-2.6,12.5-10.5v-5.9c0-7.9-4-10.5-12.5-10.5ZM418.6,94.8c0,3.7-.6,5.6-5.6,5.6h-3.9v-14.8h3.9c5,0,5.6,1.8,5.6,5.6v3.7Z"/>
  <path class="st0" d="M447.3,85.5c1,0,1-3.5,1-4.5s-.4-1.5-1-1.5h-16.1c-.7,0-1.6.3-1.6,1v24.9c0,.6.7,1,2,1h15.8c1,0,1-3.5,1-4.5s-.4-1.5-1-1.5h-11v-4.6h9c1,0,1-3.5,1-4.5s-.4-1.5-1-1.5h-9v-4.2h11.1Z"/>
  <path class="st0" d="M468.5,97.1c3-1,4.5-3.1,4.5-7.8v-1.3c0-6-2.5-8.5-10.6-8.5h-8.7c-1,0-1.7.6-1.7,1.7v24.5c0,1,4,1.1,5.1,1.1s1.6-.3,1.6-1v-8.1h3l5.1,8.1c.6.9,3.5.9,4.7.9s2.1,0,2.1-1-.1-.7-.5-1.3l-4.6-7.4ZM466.1,89.3c0,2.1-1,2.5-3.2,2.5h-4.1v-6.3h4.1c2.2,0,3.2.4,3.2,2.5v1.3Z"/>
  <path class="st0" d="M498.5,79.1c-1.1,0-5.3,0-5.3.9v14.4l-9.5-14.3c-.4-.6-.9-1-1.6-1s-5.1,0-5.1,1v25.6c0,1,4,1,5.1,1s1.6-.4,1.6-1v-14.2l9.5,14.2c.7.9,4,1,5.1,1s1.6-.3,1.6-1v-25.5c0-.8-.5-1.2-1.3-1.2Z"/>
  <path class="st0" d="M522.1,85.5c1,0,1-3.5,1-4.5s-.4-1.5-1-1.5h-16.1c-.7,0-1.6.3-1.6,1v24.9c0,.6.7,1,2,1h15.8c1,0,1-3.5,1-4.5s-.4-1.5-1-1.5h-11v-4.6h9c1,0,1-3.5,1-4.5s-.4-1.5-1-1.5h-8.9v-4.2h11.1Z"/>
  <path class="st0" d="M547.2,91.9c-2.1,0-5.3.2-5.3,1.1v7.6c-1,.1-2,.2-3,.2h-.3c-4.8,0-5.3-1.7-5.3-5.6v-4.5c0-3.8.6-5.6,6.4-5.6h.7c2.7,0,5.8.6,6.4.6,1,0,1.6-2.5,1.6-4.8s-5.9-1.8-9.1-1.8h-.7c-8.2,0-12.2,2.6-12.2,10.5v6.7c0,7.9,4,10.5,12.2,10.5h.3c2.9,0,6.8-.6,8.6-1.5.7-.4,1-.6,1-1.5v-10.6c0-.7-.4-1.4-1.3-1.4Z"/>
  <path class="st0" d="M537.6,78c4.1,0,6.2-1.8,6.2-5.1s-.6-.8-1.2-.8-3.5,0-3.5.7-.5,1.3-1.4,1.3-1.4-.5-1.4-1.3-2.8-.7-3.5-.7-1.2.3-1.2.8c0,3.3,2,5.1,6.2,5.1Z"/>
  <path class="st0" d="M556.9,79.1c-1,0-5.1,0-5.1,1v25.6c0,1,4,1,5.1,1s1.6-.4,1.6-1v-25.6c0-.6-.9-1-1.6-1Z"/>
  <path class="st0" d="M556.7,77.7c.7,0,1.6-.4,1.6-1v-4.2c0-.6-.9-1-1.6-1s-4.7,0-4.7,1v4.2c0,.9,3.7,1,4.7,1Z"/>
  <path class="st0" d="M181.6,72.7c.6,0,.9-.3.9-.8v-10.7l9.4,10.9c.5.6,1.9.6,2.9.6s1.2,0,1.2-.6,0-.5-.5-1l-9.1-10.5,8-9.1c.4-.4.6-.8.6-1,0-.5-.7-.6-1-.6-1,0-2.4,0-2.9.6l-8.5,9.8v-9.6c0-.6-.4-.8-.9-.8s-2.7.1-2.7.6v21.4c0,.5,1.5.6,2.7.6Z"/>
  <path class="st0" d="M205.8,72.7h.2c6.6,0,9-2.6,9-8.4v-6c0-5.8-2.4-8.3-9-8.3h-.2c-6.5,0-9,2.6-9,8.3v6c0,5.8,2.4,8.4,9,8.4ZM200.6,58.7c0-3.9,1.2-5.4,5.2-5.4h.2c4.1,0,5.3,1.6,5.3,5.4v5.3c0,4.1-1.4,5.5-5.3,5.5h-.2c-3.8,0-5.2-1.4-5.2-5.5v-5.3Z"/>
  <path class="st0" d="M227.2,53.1h.2c1.9,0,3.8.3,4.5.4.5,0,.7-1.1.7-2.4s-3.8-1.1-5.5-1.1h-.2c-5.8,0-8.6,2.1-8.6,8.3v6c0,6.3,2.7,8.3,8.4,8.3h.2c2,0,5.7-.3,5.7-1.1s-.2-2.5-.9-2.4c-.9.2-2.5.5-4.5.5h-.2c-4.2,0-5-1.6-5-5.8v-4.9c0-4.2.9-5.8,5.2-5.8Z"/>
  <path class="st0" d="M235.3,72.7c1.2,0,2.4,0,2.6-.6l1.5-4.6h8.1l1.5,4.5c.2.7,1.3.7,2.6.7s1.2-.2,1.2-.6,0-.2,0-.3l-7.4-21.1c-.2-.4-.5-.7-.9-.7-.9,0-2.5,0-2.7.6l-7.5,21.2c0,0,0,.2,0,.3,0,.5.6.6,1.2.6ZM243.2,55.7c.1-.3.2-.7.2-1.1,0,.3.1.8.2,1.1l2.9,8.9h-6.2l2.9-8.9Z"/>
  <path class="st0" d="M269.1,69.9c0-.5-.3-.9-.8-.9h-9.5v-6.3h8.5c.5,0,.6-1.7.6-2.4s-.4-.9-.8-.9h-8.4v-5.9h9.7c.5,0,.6-1.7.6-2.4s-.3-.9-.8-.9h-12.3c-.5,0-.9.2-.9.8v20.6c0,.4.6.6,1.4.6h12c.5,0,.6-1.7.6-2.4Z"/>
  <path class="st0" d="M274.1,72.3h10.9c.5,0,.6-1.7.6-2.4s-.3-.9-.7-.9h-8.8v-18.3c0-.5-.4-.8-.9-.8-.8,0-2.8.1-2.8.6v21.1c0,.5.9.6,1.7.6Z"/>
  <path class="st0" d="M290.6,48.8c.6,0,.9-.3.9-.8v-2.3c0-.5-.4-.8-.9-.8s-2.5,0-2.5.6v2.7c0,.5,1.8.6,2.5.6Z"/>
  <path class="st0" d="M290.7,72.7c.5,0,.9-.3.9-.8v-21.1c0-.5-.4-.8-.9-.8s-2.7.1-2.7.6v21.4c0,.5,2,.6,2.7.6Z"/>
  <path class="st0" d="M301.8,72.7c1.2,0,2.4,0,2.6-.6l1.5-4.6h8.1l1.5,4.5c.2.7,1.3.7,2.6.7s1.2-.2,1.2-.6,0-.2,0-.3l-7.4-21.1c-.2-.4-.5-.7-.9-.7-.9,0-2.5,0-2.7.6l-7.5,21.2c0,0,0,.2,0,.3,0,.5.6.6,1.2.6ZM309.7,55.7c.1-.3.2-.7.2-1.1,0,.3.1.8.2,1.1l2.9,8.9h-6.2l2.9-8.9Z"/>
  <path class="st0" d="M324.3,72.7c.5,0,.9-.3.9-.8v-15l9.9,15.3c.3.5,2,.6,2.7.6s.9-.3.9-.8v-21c0-.6-.2-.9-.8-.9s-2.8.1-2.8.6v15.3l-9.9-15.3c-.2-.3-.5-.6-.9-.6-.7,0-2.7.1-2.7.6v21.4c0,.5,2,.6,2.7.6Z"/>
  <path class="st0" d="M359.7,72c0,0,0-.2,0-.3l-7.4-21.1c-.2-.4-.5-.7-.9-.7-.9,0-2.5,0-2.7.6l-7.5,21.2c0,0,0,.2,0,.3,0,.5.6.6,1.2.6,1.2,0,2.4,0,2.6-.6l1.5-4.6h8.1l1.5,4.5c.2.7,1.3.7,2.6.7s1.2-.2,1.2-.6ZM347.3,64.6l2.9-8.9c.1-.3.2-.7.2-1.1,0,.3.1.8.2,1.1l2.9,8.9h-6.2Z"/>
  <path class="st0" d="M369.9,50.3h-6.8c-.6,0-1,.2-1,.8v20.6c0,.6.6.6,1.4.6h6.4c6.5,0,9.5-2.1,9.5-8.3v-5.3c0-6.3-3.1-8.3-9.5-8.3ZM375.7,63.5c0,4-1.3,5.6-5.8,5.6h-4.1v-15.5h4.1c4.5,0,5.8,1.6,5.8,5.6v4.2Z"/>
  <path class="st0" d="M391.9,50h-.2c-6.5,0-9,2.6-9,8.3v6c0,5.8,2.4,8.4,9,8.4h.2c6.6,0,9-2.6,9-8.4v-6c0-5.8-2.4-8.3-9-8.3ZM397.1,63.9c0,4.1-1.4,5.5-5.3,5.5h-.2c-3.8,0-5.2-1.4-5.2-5.5v-5.3c0-3.9,1.2-5.4,5.2-5.4h.2c4.1,0,5.3,1.6,5.3,5.4v5.3Z"/>
  <path class="st0" d="M406.1,72.3h10.9c.5,0,.6-1.7.6-2.4s-.3-.9-.7-.9h-8.8v-18.3c0-.5-.4-.8-.9-.8-.8,0-2.8.1-2.8.6v21.1c0,.5.9.6,1.7.6Z"/>
  <path class="st0" d="M436.6,64.7v-13.8c0-.5-.4-.9-.9-.9s-2.8.2-2.8.7v13.8c0,3.5-1,4.9-4.5,4.9h-.2c-3.4,0-4.4-1.4-4.4-4.9v-13.6c0-.5-.4-.9-.9-.9-.8,0-2.8.2-2.8.7v14c0,6,2.7,8,8.1,8h.2c5.5,0,8.2-2,8.2-8Z"/>
  <path class="st0" d="M460.3,69.9c0-.5-.3-.9-.7-.9h-8.8v-18.3c0-.5-.4-.8-.9-.8-.8,0-2.8.1-2.8.6v21.1c0,.5.9.6,1.7.6h10.9c.5,0,.6-1.7.6-2.4Z"/>
  <path class="st0" d="M465.4,48.8c.6,0,.9-.3.9-.8v-2.3c0-.5-.4-.8-.9-.8s-2.5,0-2.5.6v2.7c0,.5,1.8.6,2.5.6Z"/>
  <path class="st0" d="M465.5,72.7c.5,0,.9-.3.9-.8v-21.1c0-.5-.4-.8-.9-.8s-2.7.1-2.7.6v21.4c0,.5,2,.6,2.7.6Z"/>
  <path class="st0" d="M483.1,66.3c0-7.1-9.8-6.1-9.8-10.6s1.2-2.6,3.4-2.6,3.8.3,4.8.5c.6.1,1-.7,1.1-1.8,0-.6,0-.9-.6-1.1-1.2-.5-4.2-.7-5.5-.7-4.3,0-6.8,1.8-6.8,6.1,0,6.9,9.8,5.8,9.8,10.6s-1.9,3-3.8,3-4.6-.6-5.3-.7c-.6-.1-.9.9-1,2.1,0,.6,0,.8.6,1,1.3.4,3.6.7,6,.7,3.6,0,7.2-1.2,7.2-6.4Z"/>
  <path class="st0" d="M499.6,53.6c.5,0,.6-1.7.6-2.4s-.3-.9-.8-.9h-12.3c-.5,0-.9.2-.9.8v20.6c0,.4.6.6,1.4.6h12c.5,0,.6-1.7.6-2.4s-.3-.9-.8-.9h-9.5v-6.3h8.5c.5,0,.6-1.7.6-2.4s-.4-.9-.8-.9h-8.4v-5.9h9.7Z"/>
  <path class="st0" d="M516.3,66.3c0-7.1-9.8-6.1-9.8-10.6s1.2-2.6,3.4-2.6,3.8.3,4.8.5c.6.1,1-.7,1.1-1.8,0-.6,0-.9-.6-1.1-1.2-.5-4.2-.7-5.5-.7-4.3,0-6.8,1.8-6.8,6.1,0,6.9,9.8,5.8,9.8,10.6s-1.9,3-3.8,3-4.6-.6-5.4-.7c-.6-.1-.9.9-1,2.1,0,.6,0,.8.6,1,1.3.4,3.6.7,6,.7,3.6,0,7.2-1.2,7.2-6.4Z"/>
  <path class="st0" d="M522,48.8c.6,0,.9-.3.9-.8v-2.3c0-.5-.4-.8-.9-.8s-2.5,0-2.5.6v2.7c0,.5,1.8.6,2.5.6Z"/>
  <path class="st0" d="M522.1,72.7c.5,0,.9-.3.9-.8v-21.1c0-.5-.4-.8-.9-.8s-2.7.1-2.7.6v21.4c0,.5,2,.6,2.7.6Z"/>
  <path class="st0" d="M162.3,93c2.9-3.3,3.2-8.2,3.2-8.2,0,0-4,1-7.2,4-1.7,1.6-2.9,3.6-3.8,5.2.9-4.2,1.5-8.7,1.7-13.3,1.4-.3,5.2-1.5,7.1-4.5,2.2-3.5,1.8-8.1,1.8-8.1,0,0-3.5,1.5-6.1,4.8-1.4,1.8-2.3,4-2.8,5.6,0-.6,0-1.2,0-1.8,0-4.3-.2-8-.5-11.3,1.2-.6,4.4-2.4,5.6-5.5,1.3-3.6,0-7.7,0-7.7,0,0-2.9,2.1-4.6,5.5-.8,1.6-1.2,3.5-1.3,5-.7-4.8-1.9-8.5-3.5-12,.9-.9,3.2-3.3,3.3-6.5.1-3.5-2.2-6.7-2.2-6.7,0,0-1.9,2.7-2.4,6.2-.2,1.8,0,3.6.3,5-1.4-2.6-3.1-5.1-5.1-7.8.6-1,2-3.7,1.4-6.4-.7-3.2-3.5-5.5-3.5-5.5,0,0-1.1,2.8-.7,6,.2,1.2.5,2.3.9,3.3-.7-.9-1.3-1.7-2-2.7l-1.1-1.2c-.3-1.4-1.1-3.5-2.9-4.9-2.6-2-6.2-1.9-6.2-1.9,0,0,.9,2.9,3.3,5.1,1.5,1.3,3.4,2.2,4.7,2.7l1,1.2c.6.8,1.2,1.5,1.7,2.2-.7-.5-1.5-.9-2.3-1.2-3.1-1-5.2.8-5.2.8,0,0,.7,2.6,3.8,3.6,2.2.7,4.8.3,6.2,0,1.5,2,2.7,3.9,3.9,5.8-.5-.5-1.1-1-1.7-1.4-3-1.9-5.7-.5-5.7-.5,0,0,0,3,3,4.8,2.2,1.4,5.3,1.7,6.7,1.7,1.2,2.9,2.1,6,2.7,9.8-.4-1-1-2.1-1.7-2.9-2.5-2.9-5.7-2.5-5.7-2.5,0,0-1,3,1.4,6,1.9,2.3,5.1,3.6,6.5,4.1.2,2.8.4,6,.4,9.6-.2-1-.5-2.1-1-3-1.9-3.7-5.4-3.9-5.4-3.9,0,0-1.8,3,.2,6.6,1.5,2.9,4.8,5.1,6.1,5.9-.2,3.7-.7,7.3-1.4,10.7,0-1.4-.1-2.9-.6-4.3-1.4-4.2-5-5-5-5,0,0-2.4,2.8-1,7,1.1,3.3,4.2,6.2,5.4,7.2-1.1,3.8-2.5,7.5-4.2,10.9.5-1.8.9-3.9.7-5.9-.5-4.7-4.1-6.4-4.1-6.4,0,0-3.1,2.4-2.6,7.1.4,3.8,3,7.5,4,8.8-2,3.2-4.2,6.2-6.8,9,1-1.6,2.1-3.7,2.4-5.7.9-4.9-2.3-7.7-2.3-7.7,0,0-3.9,1.5-4.8,6.5-.7,3.9.8,8.4,1.4,10.1-3.1,2.8-6.4,5.1-10.1,7.2,1.8-1.4,4-3.5,5.2-5.9,2.4-4.7,0-8.5,0-8.5,0,0-4.4.4-6.8,5.1-2,4-1.8,9.4-1.6,11-3.3,1.6-6.7,2.9-10.4,3.9,2-1,4.3-2.4,5.9-4.2,3.7-4.2,2.2-8.7,2.2-8.7,0,0-4.6-.8-8.3,3.5-3,3.4-4.1,8.8-4.5,10.6-3.7.8-7.6,1.3-11.6,1.5,2.4-.6,5.3-1.7,7.5-3.4,4.6-3.7,4-8.6,4-8.6,0,0-4.6-1.7-9.2,2-3.7,3-5.9,8.3-6.6,10.2-.3,0-4.3,0-4.3,0-.2,0-.4-.2-.5-.4l-1.1-3.5c-.2-.5-.9-.5-1,0l-1.1,3.5c0,.2-.3.4-.5.4,0,0-3.7,0-4,0-.7-1.8-2.9-7.2-6.6-10.2-4.6-3.7-9.2-2-9.2-2,0,0-.6,4.9,4,8.6,2.2,1.8,5.1,2.8,7.5,3.4-4-.2-7.9-.7-11.6-1.5-.3-1.9-1.5-7.2-4.5-10.6-3.7-4.2-8.3-3.5-8.3-3.5,0,0-1.4,4.5,2.2,8.7,1.6,1.9,3.9,3.3,5.9,4.2-3.6-1-7.1-2.3-10.4-3.9.1-1.6.4-7-1.6-11-2.4-4.7-6.8-5.1-6.8-5.1,0,0-2.3,3.8,0,8.5,1.2,2.4,3.4,4.5,5.2,5.9-3.6-2-7-4.4-10.1-7.2.6-1.7,2.1-6.2,1.4-10.1-.9-4.9-4.8-6.5-4.8-6.5,0,0-3.1,2.8-2.3,7.7.4,2.1,1.4,4.1,2.4,5.8-2.6-2.7-4.8-5.7-6.8-9,1-1.3,3.6-5,4-8.8.5-4.7-2.6-7.1-2.6-7.1,0,0-3.6,1.7-4.1,6.4-.2,2,.2,4.1.7,5.9-1.7-3.4-3.1-6.9-4.2-10.7.8-.7,4.4-3.8,5.7-7.5,1.4-4.2-1-7-1-7,0,0-3.6.8-5,5-.8,2.2-.7,4.8-.4,6.8-1-4-1.6-8.3-1.9-12.8,0,0,4.6-2.5,6.5-6.2,1.9-3.7.2-6.6.2-6.6,0,0-3.5.2-5.4,3.9-1.3,2.5-1.4,5.7-1.4,7.5,0-1.5-.1-3-.1-4.5,0-3.9.1-7.2.4-10.2,1.3-.5,4.6-1.8,6.6-4.1,2.5-2.9,1.4-6,1.4-6,0,0-3.2-.5-5.7,2.5-.8,1-1.4,2.1-1.8,3.2.7-4.3,1.8-7.7,3.3-10.8,1.4,0,4.5-.3,6.7-1.7,3-1.9,3-4.8,3-4.8,0,0-2.7-1.3-5.7.5-.4.3-.8.6-1.2.9,1.4-2.2,3.1-4.5,5-7,1.3.2,4.1.5,6.3-.3,3.1-1.1,3.6-3.8,3.6-3.8,0,0-2.1-1.7-5.2-.6-1.1.4-2.1,1.1-3,1.8.6-1.2,1.4-2.9,1.6-4.7.4-3.2-.7-6-.7-6,0,0-2.8,2.3-3.5,5.5-.5,2.1.3,4.3.9,5.6-3.2,4.2-5.8,7.8-7.9,11.4.4-1.4.7-3.6.5-5.6-.4-3.5-2.4-6.2-2.4-6.2,0,0-2.4,3.2-2.2,6.7.1,3.2,2.5,5.7,3.4,6.5-1.9,3.7-3.2,7.5-4,12.4-.2-1.5-.6-3.2-1.3-4.8-1.6-3.5-4.6-5.5-4.6-5.5,0,0-1.3,4.1,0,7.7,1.1,3.1,4.2,4.8,5.5,5.5-.4,3.4-.6,7.3-.6,12s0,.2,0,.3c-.5-1.3-1.3-2.8-2.2-4.1-2.5-3.3-6.1-4.8-6.1-4.8,0,0-.5,4.6,1.8,8.1,1.8,2.7,5,3.9,6.6,4.4.2,4.3.7,8.3,1.5,12.2-.8-1.4-1.9-2.9-3.2-4.1-3.2-3-7.2-4-7.2-4,0,0,.3,5,3.2,8.2,2.4,2.7,6.2,3.4,8,3.6,1.1,4.3,2.5,8.3,4.4,12-1.2-1.4-2.9-3-4.8-4.2-4.1-2.4-8.4-2.5-8.4-2.5,0,0,1.4,5.1,5.3,7.8,3.4,2.4,7.8,2,9.5,1.8,2.1,3.8,4.6,7.3,7.5,10.5-1.7-1.1-4-2.4-6.5-3.1-4.8-1.3-9.3-.1-9.3-.1,0,0,3,4.8,7.7,6.4,4.3,1.5,8.8-.3,10.3-1,.3.3.6.6.9.9,2.7,2.5,5.6,4.7,8.8,6.7-2-.6-4.5-1.1-7-1-5.3.2-9.5,2.8-9.5,2.8,0,0,4.5,3.9,9.8,4.2,4.6.2,8.6-2.8,10-4,3.3,1.7,6.7,3.2,10.4,4.4-2,0-4.4.1-6.6.8-5.4,1.6-9,5.3-9,5.3,0,0,5.6,2.9,11.1,1.8,4.6-.9,7.8-4.8,9.1-6.5,3.8,1,7.8,1.6,11.9,2-2.3.3-5.2,1-7.8,2.2-5.3,2.6-8.3,7.2-8.3,7.2,0,0,6.3,1.9,11.8-.3,4.9-2,7.6-7.1,8.3-8.9,1.2,0,2.4,0,3.6,0l2.3,1.7c.2.1.3.4.2.6l-1.1,3.5c-.2.5.4.9.8.6l3-2.2c.2-.1.5-.1.6,0l3,2.2c.4.3,1-.1.8-.6l-1.1-3.5c0-.2,0-.5.2-.6,0,0,2.4-1.7,2.4-1.7,1.3,0,2.6,0,3.9,0,.8,1.7,3.4,6.9,8.3,8.9,5.5,2.2,11.8.3,11.8.3,0,0-3.1-4.5-8.3-7.2-2.6-1.3-5.5-1.9-7.8-2.2,4.1-.4,8.1-1,11.9-2,1.2,1.7,4.4,5.6,9.1,6.5,5.5,1.1,11.1-1.8,11.1-1.8,0,0-3.6-3.7-9-5.3-2.2-.6-4.6-.8-6.6-.8,3.7-1.2,7.1-2.6,10.4-4.4,1.4,1.2,5.4,4.3,10,4,5.3-.3,9.8-4.2,9.8-4.2,0,0-4.2-2.6-9.5-2.8-2.5,0-5,.4-7,1,3.1-2,6.1-4.2,8.8-6.7.3-.3.6-.6.9-.9,1.5.7,6.1,2.5,10.3,1,4.7-1.7,7.7-6.4,7.7-6.4,0,0-4.5-1.2-9.3.1-2.5.6-4.8,1.9-6.5,3.1,2.9-3.2,5.4-6.7,7.5-10.5,1.6.2,6.1.6,9.5-1.8,3.8-2.7,5.3-7.8,5.3-7.8,0,0-4.4.1-8.4,2.5-1.9,1.1-3.6,2.8-4.8,4.2,1.8-3.7,3.2-7.7,4.3-11.9,1.5-.1,5.7-.6,8.4-3.6Z"/>
</svg>