<?xml version="1.0" encoding="UTF-8"?>
<svg id="Layer_1" xmlns="http://www.w3.org/2000/svg" version="1.1" viewBox="0 0 615.6 159.2">
  <!-- Generator: Adobe Illustrator 30.3.0, SVG Export Plug-In . SVG Version: 2.1.3 Build 157)  -->
  <defs>
    <style>
      .st0 {
        fill: #4753a4;
      }
    </style>
  </defs>
  <path class="st0" d="M189.5,133h-6.1c5.9-4.9,6.3-6.9,6.3-9.3,0-4.4-2.3-5.8-6.8-5.8s-3.4.1-4.5.5c-.8.2-.9.5-.9,1.3,0,1.2.4,2.7,1.3,2.6.6,0,1.6-.3,3.1-.3,2.3,0,3.1.7,3.1,1.9,0,2.2-1.3,3.1-7.4,9.1-.3.5-.6,2.5-.6,3s0,1,.6,1h11.8c.7,0,.7-2.3.7-3s-.2-1-.6-1Z"/>
  <path class="st0" d="M200,118h-1.6c-4.5,0-6.8,2.3-6.8,6.1v7.2c0,3.8,2.3,6.1,6.8,6.1h1.6c4.5,0,6.8-2.3,6.8-6.1v-7.2c0-3.8-2.3-6.1-6.8-6.1ZM202.2,131.4c0,1.1-.5,2-2.1,2h-1.6c-1.6,0-2.1-.9-2.1-2v-7.3c0-1.1.5-2.1,2.1-2.1h1.6c1.6,0,2.1.9,2.1,2.1v7.3Z"/>
  <path class="st0" d="M221,133h-6.1c5.9-4.9,6.3-6.9,6.3-9.3,0-4.4-2.3-5.8-6.8-5.8s-3.4.1-4.5.5c-.8.2-.9.5-.9,1.3,0,1.2.4,2.7,1.3,2.6.6,0,1.6-.3,3.1-.3,2.3,0,3.1.7,3.1,1.9,0,2.2-1.3,3.1-7.4,9.1-.3.5-.6,2.5-.6,3s0,1,.6,1h11.8c.7,0,.7-2.3.7-3s-.2-1-.6-1Z"/>
  <path class="st0" d="M230,125h-1.7l.3-3h6.3c.6,0,.7-2.4.7-2.8,0-.8-.5-1-.7-1h-8.2c-1.5,0-2.1,0-2.2.9l-.7,8.9c0,.6.2.8,1,.8h3.5c3,0,3.4.8,3.4,2.2,0,2-1.1,2.6-3,2.6s-4.4-.5-4.8-.5c-.9,0-1,2-1,2.8s0,.9.4.9c2.1.4,4,.5,5.3.5,4.2,0,7.5-1.4,7.5-5.8v-.8c0-4.2-2-5.8-6.2-5.8Z"/>
  <path class="st0" d="M53.3,96.3c0,.4.1.5.6.5.9,0,1.8,0,2.7,0,.2,0,.4.1.5.3.7,1.6,1.5,3,2.5,4.4,1.1,1.5,2.4,2.6,4,3.4,1.3.6,2.7,1.2,4,1.7.9.3,1.9.6,3,.9-.3-.7-.5-1.3-.7-1.9-1.5-3.5-2.7-7.2-3-11-.2-2.1-.4-4.2-.5-6.4,0-1.3,0-2.6,0-3.9,0-4.5.2-8.9.2-13.4,0-.3.1-.6.2-.9.2.2.4.4.6.7,1.2,2.7,2.4,5.4,3.6,8.1.7,1.5,1.3,3,2,4.4,1.3,2.9,2.5,5.8,3.8,8.6,1.1,2.5,2.3,5.1,3.4,7.6.3.7.5.8,1.3.7.2,0,.3,0,.5-.1,1.6-.4,3-1,4.2-2.1,2-1.8,2.6-4.3,2.9-6.8,0-.3,0-.6-.2-.8-.9-1.3-1.8-2.5-2.7-3.7-1.9-2.6-3.8-5.3-5.6-7.9-1.9-2.7-3.8-5.3-5.7-8-.9-1.2-1.8-2.4-2.6-3.6-.6-.8-1.2-1.6-1.7-2.5,0-.1,0-.3-.1-.5.2,0,.4-.1.5,0,.4,0,.8.2,1.1.3,2.1.6,4.1,1.2,6.2,1.8,2.4.7,4.8,1.4,7.2,2.1,1.7.5,3.4,1,5.2,1.5.9.2.9.2.9,1.2,0,6.4,0,12.8,0,19.1,0,2.4-.3,4.7-1.1,6.9-.5,1.3-.9,2.7-2,3.6-1.1.9-2.2,1.7-3.4,2.6-.7.5-1.4.9-2.2,1.3.7,1.5,1.4,2.8,2,4.3.3.6.6.8,1.3.8,16.5,0,30.3,0,46.7,0,.3,0,.5,0,.8,0v-.5c0-.2-.1-.3-.1-.5,0-1.4-.1-2.8-.2-4.2,0-.1-.2-.4-.4-.4-.9-.3-1.9-.4-2.9-.7-1.1-.3-2.1-.8-2.7-2-.6-1.2-.5-2.5-.5-3.8,0-.5,0-.6-.5-.7-1.6,0-17.6-.4-21-.5-1.2,0-1.2,0-1.2-1.2,0-3.5,0-7,0-10.5,0-7.1.1-14.2.2-21.3,0-3.5,0-6.9,0-10.4,0-3.6,0-7.2.1-10.9,0-2.5,0-5,0-7.4,0-3,0-6.1-.1-9.1,0-1.9-.5-3.7-1.1-5.5-.7-2.1-1.6-4.2-3-5.9-.9-1.1-1.9-2.1-3-2.9-2.1-1.6-4.5-2.5-7-3.2-2.1-.5-4.2-.9-6.4-.9-2.3,0-4.5.3-6.7.8-2,.5-3.8,1.1-5.7,1.9-.3.1-.5.3-.4.7,0,.3,0,.5,0,.8,0,2.4.2,4.8.3,7.2,0,1.3.1,2.5.2,3.8,0,.2,0,.4.1.6,2.3-.6,4.6-1.3,6.9-1.9,2.4-.7,4.9-1.3,7.5-.8,1.8.3,3.2,1.2,4.3,2.7,1.4,1.9,2,4.2,2,6.5,0,3.6-.1,7.2-.1,10.8,0,4.6,0,9.2,0,13.9,0,0,0,.2,0,.3-.1.2-.3.4-.4.4-1.4.3-2.8.6-4.3,1-2.3.5-4.6,1-7,1.5-2,.4-4,.9-5.9,1.3-.8.2-1.7.4-2.5.5-.2,0-.4,0-.5,0,0-.2,0-.4.1-.5.3-.4.5-.8.8-1.2,2.1-3,4.3-6,6.4-9,1.8-2.5,3.6-4.9,5.6-7.2,1.7-2,3-4.3,3.9-6.8.8-2.4,1-4.9.2-7.4-.4-1.3-1-2.4-2.2-3.1-1.5-.9-3.1-.6-4.6,0-.4.2-.9.4-1,.8-1.1,2.3-2.2,4.7-3.3,7.1-1.1,2.4-2.2,4.9-3.4,7.3-1,2.2-2.1,4.5-3.1,6.7-1.2,2.5-2.3,5-3.5,7.5,0,.2-.3.3-.4.4,0-.2-.2-.4-.2-.6,0-.6,0-1.3,0-1.9,0-4.7.1-9.4.2-14.1,0-2.5,0-5,0-7.5,0-2.3,0-4.6.1-6.8,0-3.7,0-7.4,0-11.1,0-.2,0-.3-.1-.7-1.5,1.5-3,2.8-4.4,4.3-1.6,1.7-3.2,3.3-5,4.8-.7.5-1.3.9-2.2.7-.5,0-1,0-1.4,0-.5,0-.7.1-.7.7,0,24.4,0,48.7,0,73.1,0,.7,0,1.3,0,2Z"/>
  <path class="st0" d="M75.1,122.3c.3,0,.4-.1.4-.4v-8.8c0-.1-.1-.2-.4-.2-.5,0-.8,0-1,.2l-1.7,1.5c-.2.2-.1.4,0,.5.3.3.7.5.8.4l.7-.7v7.3c0,.2.8.3,1.1.3Z"/>
  <path class="st0" d="M79.9,120.2c-.7.5-1.2.6-2.4.9-.2,0,0,.8.2,1.1.1.1.3.1.4,0,2.7-.6,5.1-2.2,5.1-6.4v-.2c0-2.2-1-3-3.2-3h-.1c-2.2,0-3.2.8-3.2,3v.2c0,2,.8,3,2.6,3h.1c.6,0,1.3-.1,1.8-.6-.2.7-.5,1.3-1.2,1.8ZM79.9,117.7h-.1c-1.5,0-1.7-.6-1.7-1.7v-.2c0-1,.2-1.7,1.7-1.7h.1c1.5,0,1.7.6,1.7,1.7v.2c0,1.2-.3,1.8-1.7,1.8Z"/>
  <path class="st0" d="M83.7,119.6c0,2.1,1,2.7,3.2,2.7h.4c2.1,0,3.2-.6,3.2-2.7s-.7-2.1-1.4-2.4c.7-.3,1.1-.7,1.1-2.1s-1-2.3-2.9-2.3h-.4c-1.9,0-2.9.5-2.9,2.3s.4,1.8,1.1,2.1c-.7.2-1.4.6-1.4,2.4ZM86.9,114.1h.4c1,0,1.4.4,1.4,1.3s-.2,1.2-1.4,1.2h-.4c-1.1,0-1.4-.5-1.4-1.2s.3-1.3,1.4-1.3ZM86.9,117.9h.4c1.2,0,1.7.4,1.7,1.5s-.2,1.6-1.7,1.6h-.4c-1.5,0-1.7-.5-1.7-1.6s.5-1.5,1.7-1.5Z"/>
  <path class="st0" d="M94.3,112.9c-2.1,0-3.1,1-3.1,3.1v3.2c0,2.1,1,3.1,3.1,3.1h.5c2.1,0,3.1-1,3.1-3.1v-3.2c0-2.1-1-3.1-3.1-3.1h-.5ZM96.4,115.9v3.3c0,1.2-.4,1.8-1.6,1.8h-.5c-1.2,0-1.6-.6-1.6-1.8v-3.3c0-1.2.4-1.8,1.6-1.8h.5c1.2,0,1.6.6,1.6,1.8Z"/>
  <path class="st0" d="M195.6,109.2c1.5,0,2.1-.5,2.4-1.3l5.7-14.4c0-.2.4-.9.5-1.6,0,.6.1,1.3.2,1.6l1.8,14.3c.2,1.3,3.7,1.4,5.4,1.4s2.3-.3,2-2l-4.6-28c-.1-.6-.7-1.3-2.3-1.3s-4,.1-4.4,1.3l-6.4,17c-.3.7-.8,1.9-.8,2.4,0-.5-.7-1.8-.9-2.4l-6.6-17c-.3-.9-1.3-1.3-2.1-1.3s-4.3,0-4.5,1.3l-4.8,28c-.3,1.6,1.3,2,2,2,1.7,0,5.3,0,5.4-1.4l1.9-14.3c0-.2.1-.8.2-1.4,0,.5.3,1.3.5,1.4l5.7,14.4c.5,1.2,3.5,1.3,4.1,1.3Z"/>
  <path class="st0" d="M237,85.2c1.1,0,1.1-3.9,1.1-5s-.5-1.7-1.2-1.7h-18.2c-.8,0-1.8.4-1.8,1.1v28.1c0,.7.8,1.1,2.3,1.1h17.8c1.1,0,1.1-3.9,1.1-5s-.5-1.7-1.2-1.7h-12.4v-5.2h10.1c1.1,0,1.1-3.9,1.1-5s-.5-1.7-1.2-1.7h-10.1v-4.8h12.5Z"/>
  <path class="st0" d="M264.3,101.9h-13l10.9-14.6c2.2-2.9,2.5-5.5,2.5-7.2s-.4-1.7-1.4-1.7h-19.9c-.6,0-1.1.9-1.1,1.7,0,1.1,0,5,1.1,5h11.4l-10.1,13.4c-3.3,4.3-3.4,6-3.4,8.5s.3,1.7,1.3,1.7h21.6c1.1,0,1.1-3.9,1.1-5s-.3-1.7-1.1-1.7Z"/>
  <path class="st0" d="M291.6,78c-1.2,0-5.8.3-5.8,1.4v18.4c0,3.1-.5,4.6-4.5,4.6h-.3c-4,0-4.5-1.5-4.5-4.6v-18.4c0-.7-1-1.4-1.8-1.4s-5.8.3-5.8,1.4v18.8c0,8.2,4,11,12.1,11h.3c8.1,0,12.1-2.7,12.1-11v-18.8c0-.7-1-1.4-1.8-1.4Z"/>
  <path class="st0" d="M322.8,78c-1.2,0-6,0-6,1v16.3l-10.7-16.1c-.4-.7-1-1.2-1.9-1.2s-5.7,0-5.7,1.2v28.8c0,1.1,4.5,1.2,5.7,1.2s1.9-.5,1.9-1.2v-16l10.7,16.1c.8,1,4.5,1.1,5.7,1.1s1.8-.4,1.8-1.1v-28.8c0-.9-.6-1.3-1.5-1.3Z"/>
  <path class="st0" d="M348.2,101.9h-11.3v-22.8c0-.7-1-1.2-1.8-1.2s-5.8,0-5.8,1.2v28.4c0,1,2.1,1.1,3.2,1.1h15.7c1.1,0,1.1-3.9,1.1-5s-.5-1.7-1.1-1.7Z"/>
  <path class="st0" d="M367.9,79.1c-.3-.8-1-1.1-1.6-1.1-1.5,0-5.2,0-5.6,1.1l-10.6,28.3c0,.1,0,.3,0,.4,0,1,1.3,1.3,2.4,1.3,2.5,0,4.9,0,5.3-1.3l1.4-4.4h10l1.5,4.4c.4,1.2,2.7,1.3,5.3,1.3s2.4-.3,2.4-1.3,0-.3,0-.4l-10.4-28.3ZM361.2,97.5l2.8-8.5c.1-.4.2-1,.2-1.4,0,.4.1,1,.3,1.4l2.8,8.5h-6Z"/>
  <path class="st0" d="M399.7,98.2c3.4-1.1,5.1-3.5,5.1-8.8v-1.5c0-6.8-2.8-9.6-11.9-9.6h-9.8c-1.1,0-1.9.6-1.9,1.9v27.6c0,1.1,4.5,1.2,5.7,1.2s1.8-.4,1.8-1.1v-9.1h3.4l5.8,9.1c.6,1,3.9,1.1,5.3,1.1s2.4,0,2.4-1.1-.2-.8-.6-1.5l-5.2-8.3ZM396.9,89.4c0,2.4-1.1,2.8-3.7,2.8h-4.6v-7.1h4.6c2.4,0,3.7.5,3.7,2.8v1.5Z"/>
  <path class="st0" d="M414.9,78c-1.2,0-5.7,0-5.7,1.2v28.8c0,1.1,4.5,1.2,5.7,1.2s1.8-.5,1.8-1.2v-28.8c0-.7-1-1.2-1.8-1.2Z"/>
  <path class="st0" d="M443.3,78.4h-10.6c-1,0-1.4.3-1.4,1.1v28.1c0,1,.9,1.1,2.3,1.1h9.7c9.5,0,14-2.9,14-11.8v-6.6c0-8.9-4.5-11.8-14-11.8ZM449.6,95.6c0,4.2-.7,6.3-6.3,6.3h-4.4v-16.7h4.4c5.6,0,6.3,2.1,6.3,6.3v4.2Z"/>
  <path class="st0" d="M482,85.2c1.1,0,1.1-3.9,1.1-5s-.5-1.7-1.2-1.7h-18.2c-.8,0-1.8.4-1.8,1.1v28.1c0,.7.8,1.1,2.3,1.1h17.8c1.1,0,1.1-3.9,1.1-5s-.5-1.7-1.2-1.7h-12.4v-5.2h10.1c1.1,0,1.1-3.9,1.1-5s-.5-1.7-1.2-1.7h-10.1v-4.8h12.5Z"/>
  <path class="st0" d="M505.9,98.2c3.4-1.1,5.1-3.5,5.1-8.8v-1.5c0-6.8-2.8-9.6-11.9-9.6h-9.8c-1.1,0-1.9.6-1.9,1.9v27.6c0,1.1,4.5,1.2,5.7,1.2s1.8-.4,1.8-1.1v-9.1h3.4l5.8,9.1c.6,1,3.9,1.1,5.3,1.1s2.4,0,2.4-1.1-.2-.8-.6-1.5l-5.2-8.3ZM503.1,89.4c0,2.4-1.1,2.8-3.7,2.8h-4.6v-7.1h4.6c2.4,0,3.7.5,3.7,2.8v1.5Z"/>
  <path class="st0" d="M539.7,78c-1.2,0-6,0-6,1v16.3l-10.7-16.1c-.4-.7-1-1.2-1.9-1.2s-5.7,0-5.7,1.2v28.8c0,1.1,4.5,1.2,5.7,1.2s1.9-.5,1.9-1.2v-16l10.7,16.1c.8,1,4.5,1.1,5.7,1.1s1.8-.4,1.8-1.1v-28.8c0-.9-.6-1.3-1.5-1.3Z"/>
  <path class="st0" d="M566.3,85.2c1.1,0,1.1-3.9,1.1-5s-.5-1.7-1.2-1.7h-18.2c-.8,0-1.8.4-1.8,1.1v28.1c0,.7.8,1.1,2.3,1.1h17.8c1.1,0,1.1-3.9,1.1-5s-.5-1.7-1.2-1.7h-12.4v-5.2h10.1c1.1,0,1.1-3.9,1.1-5s-.5-1.7-1.2-1.7h-10.1v-4.8h12.5Z"/>
  <path class="st0" d="M594.6,92.4c-2.4,0-6,.2-6,1.2v8.5c-1.1.1-2.3.2-3.4.2h-.3c-5.5,0-6-1.9-6-6.3v-5c0-4.3.6-6.3,7.2-6.3h.8c3,0,6.6.6,7.2.6,1.1,0,1.8-2.9,1.8-5.5s-6.7-2-10.3-2h-.8c-9.3,0-13.8,2.9-13.8,11.8v7.6c0,8.9,4.5,11.8,13.8,11.8h.3c3.3,0,7.7-.7,9.7-1.6.8-.4,1.2-.7,1.2-1.6v-11.9c0-.8-.5-1.6-1.5-1.6Z"/>
  <path class="st0" d="M583.8,76.7c4.7,0,6.9-2,6.9-5.7s-.7-.9-1.4-.9-4,0-4,.8-.6,1.5-1.6,1.5-1.6-.5-1.6-1.5-3.2-.8-4-.8-1.4.3-1.4.9c0,3.7,2.3,5.7,6.9,5.7Z"/>
  <path class="st0" d="M605.6,78c-1.2,0-5.7,0-5.7,1.2v28.8c0,1.1,4.5,1.2,5.7,1.2s1.9-.5,1.9-1.2v-28.8c0-.7-1-1.2-1.9-1.2Z"/>
  <path class="st0" d="M605.4,76.3c.8,0,1.8-.4,1.8-1.1v-4.7c0-.7-1-1.1-1.8-1.1s-5.3,0-5.3,1.1v4.7c0,1,4.1,1.1,5.3,1.1Z"/>
  <path class="st0" d="M182.3,70.7c.6,0,1-.3,1-.9v-12.1l10.7,12.3c.6.7,2.1.7,3.3.7s1.3,0,1.3-.7-.1-.6-.5-1.1l-10.3-11.8,9-10.3c.4-.5.6-.9.6-1.1,0-.6-.8-.7-1.2-.7-1.2,0-2.7,0-3.3.7l-9.6,11.1v-10.9c0-.7-.4-.9-1-.9s-3.1.1-3.1.7v24.2c0,.6,1.7.7,3.1.7Z"/>
  <path class="st0" d="M209.7,70.7h.3c7.4,0,10.2-2.9,10.2-9.4v-6.8c0-6.5-2.8-9.4-10.2-9.4h-.3c-7.4,0-10.1,2.9-10.1,9.4v6.8c0,6.5,2.7,9.4,10.1,9.4ZM203.8,54.9c0-4.3,1.3-6.1,5.9-6.1h.3c4.6,0,5.9,1.8,5.9,6.1v5.9c0,4.7-1.6,6.2-5.9,6.2h-.3c-4.3,0-5.9-1.6-5.9-6.2v-5.9Z"/>
  <path class="st0" d="M233.8,48.6h.3c2.1,0,4.3.4,5.1.5.6,0,.8-1.3.8-2.7s-4.3-1.2-6.2-1.2h-.3c-6.5,0-9.7,2.3-9.7,9.4v6.8c0,7.1,3.1,9.4,9.4,9.4h.3c2.2,0,6.4-.3,6.4-1.3s-.2-2.8-1-2.7c-1,.2-2.9.5-5.1.5h-.3c-4.7,0-5.7-1.8-5.7-6.6v-5.6c0-4.7,1-6.5,5.9-6.5Z"/>
  <path class="st0" d="M242.8,70.7c1.3,0,2.7,0,2.9-.7l1.7-5.1h9.2l1.7,5c.2.8,1.4.8,2.9.8s1.3-.2,1.3-.7,0-.2,0-.3l-8.3-23.8c-.2-.5-.6-.8-1-.8-1,0-2.8.1-3,.7l-8.4,23.9c0,.1,0,.2,0,.3,0,.6.7.7,1.3.7ZM251.7,51.5c.1-.3.2-.8.3-1.2,0,.4.1.9.2,1.2l3.2,10h-7l3.3-10Z"/>
  <path class="st0" d="M281,67.6c0-.6-.4-1-.9-1h-10.8v-7.1h9.6c.6,0,.7-2,.7-2.7s-.4-1-.9-1h-9.4v-6.7h11c.6,0,.7-1.9.7-2.7s-.4-1-.9-1h-13.8c-.6,0-1.1.3-1.1.9v23.2c0,.5.6.7,1.6.7h13.5c.6,0,.7-2,.7-2.7Z"/>
  <path class="st0" d="M286.6,70.3h12.3c.6,0,.7-1.9.7-2.7s-.4-1-.8-1h-9.9v-20.6c0-.5-.4-.9-1-.9-.9,0-3.1.1-3.1.7v23.8c0,.6,1,.7,1.9.7Z"/>
  <path class="st0" d="M305.3,43.8c.6,0,1.1-.4,1.1-.9v-2.6c0-.5-.4-.9-1.1-.9s-2.9.1-2.9.7v3c0,.5,2,.7,2.9.7Z"/>
  <path class="st0" d="M305.4,70.7c.6,0,1.1-.4,1.1-.9v-23.8c0-.5-.5-.9-1.1-.9s-3.1.1-3.1.7v24.2c0,.6,2.2.7,3.1.7Z"/>
  <path class="st0" d="M317.8,70.7c1.3,0,2.7,0,2.9-.7l1.7-5.1h9.2l1.7,5c.2.8,1.4.8,2.9.8s1.3-.2,1.3-.7,0-.2,0-.3l-8.3-23.8c-.2-.5-.6-.8-1-.8-1,0-2.8.1-3,.7l-8.4,23.9c0,.1,0,.2,0,.3,0,.6.7.7,1.3.7ZM326.7,51.5c.1-.3.2-.8.3-1.2,0,.4.1.9.2,1.2l3.2,10h-7l3.3-10Z"/>
  <path class="st0" d="M343.2,70.7c.6,0,1-.4,1-.9v-17l11.2,17.2c.4.5,2.3.7,3,.7s1-.3,1-.9v-23.7c0-.7-.3-1-.9-1s-3.2.1-3.2.7v17.3l-11.2-17.2c-.2-.4-.6-.7-1.1-.7-.8,0-3,.1-3,.7v24.2c0,.6,2.2.7,3.1.7Z"/>
  <path class="st0" d="M383.2,70c0-.1,0-.2,0-.3l-8.3-23.8c-.2-.5-.6-.8-1-.8-1,0-2.8.1-3,.7l-8.4,23.9c0,.1,0,.2,0,.3,0,.6.7.7,1.3.7,1.3,0,2.7,0,2.9-.7l1.7-5.1h9.2l1.7,5c.2.8,1.4.8,2.9.8s1.3-.2,1.3-.7ZM369.2,61.5l3.3-10c.1-.3.2-.8.3-1.2,0,.4.1.9.2,1.2l3.2,10h-7Z"/>
  <path class="st0" d="M394.7,45.4h-7.7c-.7,0-1.1.2-1.1.9v23.2c0,.6.7.7,1.6.7h7.2c7.3,0,10.8-2.3,10.8-9.4v-6c0-7.1-3.5-9.4-10.8-9.4ZM401.2,60.3c0,4.5-1.4,6.3-6.5,6.3h-4.7v-17.4h4.7c5.1,0,6.5,1.8,6.5,6.3v4.8Z"/>
  <path class="st0" d="M419.5,45.1h-.3c-7.4,0-10.1,2.9-10.1,9.4v6.8c0,6.5,2.7,9.4,10.1,9.4h.3c7.4,0,10.2-2.9,10.2-9.4v-6.8c0-6.5-2.8-9.4-10.2-9.4ZM425.4,60.8c0,4.7-1.6,6.2-5.9,6.2h-.3c-4.3,0-5.9-1.6-5.9-6.2v-5.9c0-4.3,1.3-6.1,5.9-6.1h.3c4.6,0,5.9,1.8,5.9,6.1v5.9Z"/>
  <path class="st0" d="M435.6,70.3h12.3c.6,0,.7-1.9.7-2.7s-.4-1-.8-1h-9.9v-20.6c0-.5-.4-.9-1-.9-.9,0-3.1.1-3.1.7v23.8c0,.6,1,.7,1.9.7Z"/>
  <path class="st0" d="M469.9,61.7v-15.6c0-.5-.4-1-1-1s-3.1.2-3.1.8v15.6c0,4-1.1,5.5-5.1,5.5h-.3c-3.9,0-5-1.6-5-5.5v-15.4c0-.5-.5-1-1-1-.9,0-3.1.2-3.1.8v15.8c0,6.8,3,9,9.1,9h.3c6.2,0,9.2-2.2,9.2-9Z"/>
  <path class="st0" d="M496.7,67.6c0-.6-.4-1-.8-1h-9.9v-20.6c0-.5-.4-.9-1-.9-.9,0-3.1.1-3.1.7v23.8c0,.6,1,.7,1.9.7h12.3c.6,0,.7-1.9.7-2.7Z"/>
  <path class="st0" d="M502.4,43.8c.6,0,1.1-.4,1.1-.9v-2.6c0-.5-.4-.9-1.1-.9s-2.9.1-2.9.7v3c0,.5,2,.7,2.9.7Z"/>
  <path class="st0" d="M502.5,70.7c.6,0,1.1-.4,1.1-.9v-23.8c0-.5-.5-.9-1.1-.9s-3.1.1-3.1.7v24.2c0,.6,2.2.7,3.1.7Z"/>
  <path class="st0" d="M522.4,63.4c0-8-11-6.9-11-12s1.3-2.9,3.9-2.9,4.2.3,5.4.5c.7.1,1.1-.8,1.2-2,0-.7,0-1-.6-1.2-1.3-.6-4.7-.8-6.2-.8-4.9,0-7.7,2-7.7,6.8,0,7.8,11,6.6,11,12s-2.1,3.4-4.2,3.4-5.2-.7-6-.8c-.7-.1-1,1.1-1.1,2.3,0,.7,0,.9.7,1.1,1.4.4,4.1.8,6.7.8,4,0,8.1-1.4,8.1-7.2Z"/>
  <path class="st0" d="M541,49.1c.6,0,.7-1.9.7-2.7s-.4-1-.9-1h-13.8c-.6,0-1.1.3-1.1.9v23.2c0,.5.6.7,1.6.7h13.5c.6,0,.7-2,.7-2.7s-.4-1-.9-1h-10.8v-7.1h9.6c.6,0,.7-2,.7-2.7s-.4-1-.9-1h-9.4v-6.7h11Z"/>
  <path class="st0" d="M559.7,63.4c0-8-11-6.9-11-12s1.3-2.9,3.9-2.9,4.2.3,5.4.5c.7.1,1.1-.8,1.2-2,0-.7,0-1-.6-1.2-1.3-.6-4.7-.8-6.2-.8-4.9,0-7.7,2-7.7,6.8,0,7.8,11,6.6,11,12s-2.1,3.4-4.2,3.4-5.2-.7-6-.8c-.7-.1-1,1.1-1.1,2.3,0,.7,0,.9.7,1.1,1.4.4,4.1.8,6.7.8,4,0,8.1-1.4,8.1-7.2Z"/>
  <path class="st0" d="M566.3,43.8c.6,0,1.1-.4,1.1-.9v-2.6c0-.5-.4-.9-1.1-.9s-2.9.1-2.9.7v3c0,.5,2,.7,2.9.7Z"/>
  <path class="st0" d="M566.3,70.7c.6,0,1.1-.4,1.1-.9v-23.8c0-.5-.5-.9-1.1-.9s-3.1.1-3.1.7v24.2c0,.6,2.2.7,3.1.7Z"/>
  <path class="st0" d="M162.3,93c2.9-3.3,3.2-8.2,3.2-8.2,0,0-4,1-7.2,4-1.7,1.6-2.9,3.6-3.8,5.2.9-4.2,1.5-8.7,1.7-13.3,1.4-.3,5.2-1.5,7.1-4.5,2.2-3.5,1.8-8.1,1.8-8.1,0,0-3.5,1.5-6.1,4.8-1.4,1.8-2.3,4-2.8,5.6,0-.6,0-1.2,0-1.8,0-4.3-.2-8-.5-11.3,1.2-.6,4.4-2.4,5.6-5.5,1.3-3.6,0-7.7,0-7.7,0,0-2.9,2.1-4.6,5.5-.8,1.6-1.2,3.5-1.3,5-.7-4.8-1.9-8.5-3.5-12,.9-.9,3.2-3.3,3.3-6.5.1-3.5-2.2-6.7-2.2-6.7,0,0-1.9,2.7-2.4,6.2-.2,1.8,0,3.6.3,5-1.4-2.6-3.1-5.1-5.1-7.8.6-1,2-3.7,1.4-6.4-.7-3.2-3.5-5.5-3.5-5.5,0,0-1.1,2.8-.7,6,.2,1.2.5,2.3.9,3.3-.7-.9-1.3-1.7-2-2.7l-1.1-1.2c-.3-1.4-1.1-3.5-2.9-4.9-2.6-2-6.2-1.9-6.2-1.9,0,0,.9,2.9,3.3,5.1,1.5,1.3,3.4,2.2,4.7,2.7l1,1.2c.6.8,1.2,1.5,1.7,2.2-.7-.5-1.5-.9-2.3-1.2-3.1-1-5.2.8-5.2.8,0,0,.7,2.6,3.8,3.6,2.2.7,4.8.3,6.2,0,1.5,2,2.7,3.9,3.9,5.8-.5-.5-1.1-1-1.7-1.4-3-1.9-5.7-.5-5.7-.5,0,0,0,3,3,4.8,2.2,1.4,5.3,1.7,6.7,1.7,1.2,2.9,2.1,6,2.7,9.8-.4-1-1-2.1-1.7-2.9-2.5-2.9-5.7-2.5-5.7-2.5,0,0-1,3,1.4,6,1.9,2.3,5.1,3.6,6.5,4.1.2,2.8.4,6,.4,9.6-.2-1-.5-2.1-1-3-1.9-3.7-5.4-3.9-5.4-3.9,0,0-1.8,3,.2,6.6,1.5,2.9,4.8,5.1,6.1,5.9-.2,3.7-.7,7.3-1.4,10.7,0-1.4-.1-2.9-.6-4.3-1.4-4.2-5-5-5-5,0,0-2.4,2.8-1,7,1.1,3.3,4.2,6.2,5.4,7.2-1.1,3.8-2.5,7.5-4.2,10.9.5-1.8.9-3.9.7-5.9-.5-4.7-4.1-6.4-4.1-6.4,0,0-3.1,2.4-2.6,7.1.4,3.8,3,7.5,4,8.8-2,3.2-4.2,6.2-6.8,9,1-1.6,2.1-3.7,2.4-5.7.9-4.9-2.3-7.7-2.3-7.7,0,0-3.9,1.5-4.8,6.5-.7,3.9.8,8.4,1.4,10.1-3.1,2.8-6.4,5.1-10.1,7.2,1.8-1.4,4-3.5,5.2-5.9,2.4-4.7,0-8.5,0-8.5,0,0-4.4.4-6.8,5.1-2,4-1.8,9.4-1.6,11-3.3,1.6-6.7,2.9-10.4,3.9,2-1,4.3-2.4,5.9-4.2,3.7-4.2,2.2-8.7,2.2-8.7,0,0-4.6-.8-8.3,3.5-3,3.4-4.1,8.8-4.5,10.6-3.7.8-7.6,1.3-11.6,1.5,2.4-.6,5.3-1.7,7.5-3.4,4.6-3.7,4-8.6,4-8.6,0,0-4.6-1.7-9.2,2-3.7,3-5.9,8.3-6.6,10.2-.3,0-4.3,0-4.3,0-.2,0-.4-.2-.5-.4l-1.1-3.5c-.2-.5-.9-.5-1,0l-1.1,3.5c0,.2-.3.4-.5.4,0,0-3.7,0-4,0-.7-1.8-2.9-7.2-6.6-10.2-4.6-3.7-9.2-2-9.2-2,0,0-.6,4.9,4,8.6,2.2,1.8,5.1,2.8,7.5,3.4-4-.2-7.9-.7-11.6-1.5-.3-1.9-1.5-7.2-4.5-10.6-3.7-4.2-8.3-3.5-8.3-3.5,0,0-1.4,4.5,2.2,8.7,1.6,1.9,3.9,3.3,5.9,4.2-3.6-1-7.1-2.3-10.4-3.9.1-1.6.4-7-1.6-11-2.4-4.7-6.8-5.1-6.8-5.1,0,0-2.3,3.8,0,8.5,1.2,2.4,3.4,4.5,5.2,5.9-3.6-2-7-4.4-10.1-7.2.6-1.7,2.1-6.2,1.4-10.1-.9-4.9-4.8-6.5-4.8-6.5,0,0-3.1,2.8-2.3,7.7.4,2.1,1.4,4.1,2.4,5.8-2.6-2.7-4.8-5.7-6.8-9,1-1.3,3.6-5,4-8.8.5-4.7-2.6-7.1-2.6-7.1,0,0-3.6,1.7-4.1,6.4-.2,2,.2,4.1.7,5.9-1.7-3.4-3.1-6.9-4.2-10.7.8-.7,4.4-3.8,5.7-7.5,1.4-4.2-1-7-1-7,0,0-3.6.8-5,5-.8,2.2-.7,4.8-.4,6.8-1-4-1.6-8.3-1.9-12.8,0,0,4.6-2.5,6.5-6.2,1.9-3.7.2-6.6.2-6.6,0,0-3.5.2-5.4,3.9-1.3,2.5-1.4,5.7-1.4,7.5,0-1.5-.1-3-.1-4.5,0-3.9.1-7.2.4-10.2,1.3-.5,4.6-1.8,6.6-4.1,2.5-2.9,1.4-6,1.4-6,0,0-3.2-.5-5.7,2.5-.8,1-1.4,2.1-1.8,3.2.7-4.3,1.8-7.7,3.3-10.8,1.4,0,4.5-.3,6.7-1.7,3-1.9,3-4.8,3-4.8,0,0-2.7-1.3-5.7.5-.4.3-.8.6-1.2.9,1.4-2.2,3.1-4.5,5-7,1.3.2,4.1.5,6.3-.3,3.1-1.1,3.6-3.8,3.6-3.8,0,0-2.1-1.7-5.2-.6-1.1.4-2.1,1.1-3,1.8.6-1.2,1.4-2.9,1.6-4.7.4-3.2-.7-6-.7-6,0,0-2.8,2.3-3.5,5.5-.5,2.1.3,4.3.9,5.6-3.2,4.2-5.8,7.8-7.9,11.4.4-1.4.7-3.6.5-5.6-.4-3.5-2.4-6.2-2.4-6.2,0,0-2.4,3.2-2.2,6.7.1,3.2,2.5,5.7,3.4,6.5-1.9,3.7-3.2,7.5-4,12.4-.2-1.5-.6-3.2-1.3-4.8-1.6-3.5-4.6-5.5-4.6-5.5,0,0-1.3,4.1,0,7.7,1.1,3.1,4.2,4.8,5.5,5.5-.4,3.4-.6,7.3-.6,12s0,.2,0,.3c-.5-1.3-1.3-2.8-2.2-4.1-2.5-3.3-6.1-4.8-6.1-4.8,0,0-.5,4.6,1.8,8.1,1.8,2.7,5,3.9,6.6,4.4.2,4.3.7,8.3,1.5,12.2-.8-1.4-1.9-2.9-3.2-4.1-3.2-3-7.2-4-7.2-4,0,0,.3,5,3.2,8.2,2.4,2.7,6.2,3.4,8,3.6,1.1,4.3,2.5,8.3,4.4,12-1.2-1.4-2.9-3-4.8-4.2-4.1-2.4-8.4-2.5-8.4-2.5,0,0,1.4,5.1,5.3,7.8,3.4,2.4,7.8,2,9.5,1.8,2.1,3.8,4.6,7.3,7.5,10.5-1.7-1.1-4-2.4-6.5-3.1-4.8-1.3-9.3-.1-9.3-.1,0,0,3,4.8,7.7,6.4,4.3,1.5,8.8-.3,10.3-1,.3.3.6.6.9.9,2.7,2.5,5.6,4.7,8.8,6.7-2-.6-4.5-1.1-7-1-5.3.2-9.5,2.8-9.5,2.8,0,0,4.5,3.9,9.8,4.2,4.6.2,8.6-2.8,10-4,3.3,1.7,6.7,3.2,10.4,4.4-2,0-4.4.1-6.6.8-5.4,1.6-9,5.3-9,5.3,0,0,5.6,2.9,11.1,1.8,4.6-.9,7.8-4.8,9.1-6.5,3.8,1,7.8,1.6,11.9,2-2.3.3-5.2,1-7.8,2.2-5.3,2.6-8.3,7.2-8.3,7.2,0,0,6.3,1.9,11.8-.3,4.9-2,7.6-7.1,8.3-8.9,1.2,0,2.4,0,3.6,0l2.3,1.7c.2.1.3.4.2.6l-1.1,3.5c-.2.5.4.9.8.6l3-2.2c.2-.1.5-.1.6,0l3,2.2c.4.3,1-.1.8-.6l-1.1-3.5c0-.2,0-.5.2-.6,0,0,2.4-1.7,2.4-1.7,1.3,0,2.6,0,3.9,0,.8,1.7,3.4,6.9,8.3,8.9,5.5,2.2,11.8.3,11.8.3,0,0-3.1-4.5-8.3-7.2-2.6-1.3-5.5-1.9-7.8-2.2,4.1-.4,8.1-1,11.9-2,1.2,1.7,4.4,5.6,9.1,6.5,5.5,1.1,11.1-1.8,11.1-1.8,0,0-3.6-3.7-9-5.3-2.2-.6-4.6-.8-6.6-.8,3.7-1.2,7.1-2.6,10.4-4.4,1.4,1.2,5.4,4.3,10,4,5.3-.3,9.8-4.2,9.8-4.2,0,0-4.2-2.6-9.5-2.8-2.5,0-5,.4-7,1,3.1-2,6.1-4.2,8.8-6.7.3-.3.6-.6.9-.9,1.5.7,6.1,2.5,10.3,1,4.7-1.7,7.7-6.4,7.7-6.4,0,0-4.5-1.2-9.3.1-2.5.6-4.8,1.9-6.5,3.1,2.9-3.2,5.4-6.7,7.5-10.5,1.6.2,6.1.6,9.5-1.8,3.8-2.7,5.3-7.8,5.3-7.8,0,0-4.4.1-8.4,2.5-1.9,1.1-3.6,2.8-4.8,4.2,1.8-3.7,3.2-7.7,4.3-11.9,1.5-.1,5.7-.6,8.4-3.6Z"/>
</svg>